<svg xmlns="http://www.w3.org/2000/svg" xmlns:xlink="http://www.w3.org/1999/xlink" version="1.1" id="Layer_1" x="0px" y="0px" width="426px" height="268px" viewBox="0 0 426 268" style="enable-background:new 0 0 426 268;" xml:space="preserve">
<style type="text/css">
	.st0{fill:#03a9f4;}
</style>
<g>
	<g>
		<g>
			<g>
				<g id="XMLID_00000161593655755935662870000011001230942140015495_">
					<g>
						<path d="M259.7,67.3c1,4.1,1.4,8.4,1.4,12.7c0,7.4-1.3,15.1-3,23.1c-1,0.2-2,0.7-2.9,1.5c-0.3,0.3-0.9,0.1-0.9-0.4        c-0.2-11.7-2.2-18.6-6.2-25.6c-0.9-1.7-3-2.5-4.9-2c-9.9,2.8-21.1,4.1-31.6,4.1h0h0h0c-10.5,0-21.7-1.2-31.6-4.1        c-1.9-0.5-3.9,0.3-4.9,2c-3.9,7-6,14-6.2,25.6c0,0.4-0.5,0.6-0.9,0.4c-0.9-0.8-1.9-1.3-2.9-1.5c-1.7-7.9-3-15.7-3-23.1        c0-4.4,0.4-8.6,1.4-12.7c4.1-16.7,28-27.9,48-27.9c6.9,0,18.5,1.3,22,8.6c6.9-3.9,14.7,3.3,18.4,6.8        C255.8,58.4,258.5,62.6,259.7,67.3z" fill="#000000"/>
					</g>
					<g>
						<path d="M260.1,103.5l-4.1-0.9c2-9.1,3-16.3,3-22.6c0-4.3-0.5-8.5-1.4-12.3c-1-4.1-3.4-8-7-11.5c-4.4-4.2-10.7-9.5-15.9-6.5        l-1.9,1.1l-1-2c-3.4-6.9-16.3-7.5-20.2-7.5c-9.7,0-20.3,2.7-29,7.5c-9.2,5-15.3,11.7-17,18.9c-0.9,3.8-1.4,7.8-1.4,12.3        c0,6.3,0.9,13.5,2.9,22.6l-4.1,0.9c-2.1-9.5-3-16.9-3-23.5c0-4.8,0.5-9.1,1.5-13.2c2-8.3,8.8-16,19.1-21.5        c9.3-5.1,20.6-8,31-8c3.3,0,8.2,0.3,12.9,1.7c4.6,1.4,8,3.5,10,6.4c8-2.7,16.2,5.2,19,8c4.2,4,7,8.6,8.2,13.5        c1,4.1,1.5,8.6,1.5,13.2C263.2,86.6,262.2,94.1,260.1,103.5z" fill="#000000"/>
						<path d="M211.6,172.6C211.6,172.6,211.6,172.6,211.6,172.6c-7.1,0-17.8,0-30-11.6l0,0c-1.6-1.5-3.2-3.2-4.8-5.1        c-1.7-2-3.1-5.8-4.3-9.4c-0.6-1.8-4.2-11.6-5.5-15c-4.2-1.2-8.1-6.4-9.7-13.3c-1.3-5.5-0.8-10.8,1.3-14.1        c1.1-1.7,2.6-2.8,4.4-3.1c0.8-0.2,1.7-0.2,2.5,0c0.5,0.1,0.9,0.2,1.4,0.4c0.4-9.7,2.3-16.6,6.4-23.9c1.4-2.5,4.4-3.8,7.3-2.9        c9.1,2.6,19.9,4,31,4c11.2,0,21.9-1.4,31.1-4c2.8-0.8,5.9,0.4,7.3,2.9c4.1,7.3,5.9,14.1,6.4,23.9c0.5-0.2,0.9-0.3,1.4-0.4        c0.8-0.2,1.7-0.2,2.5,0c1.7,0.3,3.3,1.4,4.4,3.1c2.1,3.3,2.6,8.6,1.3,14.1c-1.6,6.9-5.5,12.1-9.7,13.3        c-1.2,3.3-4.9,13.2-5.5,15c-1.2,3.5-2.7,7.4-4.3,9.4c-1.6,1.8-3.2,3.5-4.8,5.1C229.4,172.6,218.7,172.6,211.6,172.6z         M184.5,158c11,10.4,20.3,10.4,27.1,10.4c6.8,0,16.1,0,27.1-10.4c1.5-1.4,3-3,4.5-4.8c1.4-1.6,3-6.3,3.6-8        c0.7-2.2,5.7-15.6,5.9-16.2l0.5-1.3l1.3-0.1c2.4-0.2,5.9-4.1,7.3-10.3c1-4.3,0.7-8.6-0.8-10.9c-0.5-0.8-1-1.2-1.7-1.3        c-0.3-0.1-0.6,0-0.9,0c-0.6,0.1-1.3,0.5-2,1.1c-0.8,0.6-1.9,0.8-2.8,0.4c-0.9-0.4-1.5-1.3-1.5-2.3        c-0.2-12.1-2.5-18.6-5.9-24.6c-0.5-0.8-1.5-1.3-2.5-1c-9.5,2.7-20.6,4.2-32.2,4.2c-11.6,0-22.7-1.4-32.2-4.2        c-1-0.3-2,0.1-2.5,1c-3.4,6.1-5.7,12.6-5.9,24.6c0,1-0.6,1.9-1.5,2.3c-0.9,0.4-2,0.3-2.8-0.4c-0.7-0.6-1.4-1-2-1.1        c-0.3-0.1-0.6-0.1-0.9,0c-0.6,0.1-1.2,0.6-1.7,1.3c-1.5,2.3-1.8,6.6-0.8,10.9c1.4,6.2,4.9,10.2,7.3,10.3l1.3,0.1l0.5,1.3        c0.2,0.6,5.2,14,5.9,16.2c0.6,1.7,2.2,6.4,3.6,8C181.5,154.9,183,156.5,184.5,158L184.5,158z M166.8,104.2        C166.8,104.2,166.8,104.2,166.8,104.2C166.8,104.2,166.8,104.2,166.8,104.2z M256.4,104.2        C256.4,104.2,256.4,104.2,256.4,104.2C256.4,104.2,256.4,104.2,256.4,104.2z" fill="#000000"/>
						<polygon points="240.8,181.7 238.1,159.6 238.1,159.5 240.2,159.5 242.2,159.2 244.9,181.1       " fill="#000000"/>
						<polygon points="182.4,181.7 178.3,181.1 181,159.2 183,159.5 185.1,159.5 185.1,159.7       " fill="#000000"/>
					</g>
				</g>
			</g>
			<g>
				<g>
					<path class="st0" d="M241.7,144.1c-10.1,0-19.2-6.3-23.1-16.2c-1.4-3.6-2.8-7.1-4.3-10.7c-0.4-1-1.4-1.1-1.6-1.1       c-0.3,0-1.2,0.1-1.6,1.1c-1.4,3.4-2.9,7.1-4.3,10.7c-3.9,9.9-13,16.2-23.1,16.2c-0.1,0-0.2,0-0.4,0l-1.8,0       c-5.4-0.1-10.8-2.4-15-6.3c-4.2-4-6.7-9.2-6.8-14.6c-0.1-5,0-10,0.2-15c0.2-4,2-7.9,5.2-10.9c3.1-2.9,7.1-4.6,11.1-4.7       c0,0,0,0,0,0h73c0,0,0,0,0,0c4.1,0.1,8,1.7,11.1,4.7c3.2,3,5,6.8,5.2,10.9c0.2,5,0.3,10,0.2,15c-0.1,5.4-2.5,10.6-6.8,14.6       c-4.1,3.9-9.6,6.2-15,6.3l-1.9,0C241.9,144.1,241.8,144.1,241.7,144.1z" fill="#000000"/>
				</g>
				<g>
					<path class="st0" d="M263.8,109l0.4,0c-0.8,0-1.5-0.7-1.5-1.5c0-0.8,0.7-1.5,1.5-1.5h4.5c2.1,0,3.8,1.7,3.8,3.8v12.9       c0,2.1-1.7,3.8-3.8,3.8h-4.5c-0.8,0-1.5-0.7-1.5-1.5c0-0.8,0.7-1.5,1.5-1.5l-0.4,0c0.5,0,0.9-0.4,0.9-0.9" fill="#000000"/>
				</g>
				<g>
					<path class="st0" d="M161.1,126.5h-4.5c-2.1,0-3.8-1.7-3.8-3.8v-12.9c0-2.1,1.7-3.8,3.8-3.8h4.5c0.8,0,1.5,0.7,1.5,1.5       c0,0.8-0.7,1.5-1.5,1.5l0.2,0.5c-0.5,0-0.9,0.4-0.9,0.9v12.9c0,0.5,0.4,0.9,0.9,0.9l-0.2-0.5c0.8,0,1.5,0.7,1.5,1.5       C162.6,125.8,161.9,126.5,161.1,126.5z" fill="#000000"/>
				</g>
			</g>
		</g>
		<g>
			<g>
				<path d="M241.7,144.1c-10.1,0-19.2-6.3-23.1-16.2c-1.4-3.6-2.8-7.1-4.3-10.7c-0.4-1-1.4-1.1-1.6-1.1c-0.3,0-1.2,0.1-1.6,1.1      c-1.4,3.4-2.9,7.1-4.3,10.7c-3.9,9.9-13,16.2-23.1,16.2c-0.1,0-0.2,0-0.4,0l-1.8,0c-5.4-0.1-10.8-2.4-15-6.3      c-4.2-4-6.7-9.2-6.8-14.6c-0.1-5,0-10,0.2-15c0.2-4,2-7.9,5.2-10.9c3.1-2.9,7.1-4.6,11.1-4.7c0,0,0,0,0,0h73c0,0,0,0,0,0      c4.1,0.1,8,1.7,11.1,4.7c3.2,3,5,6.8,5.2,10.9c0.2,5,0.3,10,0.2,15c-0.1,5.4-2.5,10.6-6.8,14.6c-4.1,3.9-9.6,6.2-15,6.3l-1.9,0      C241.9,144.1,241.8,144.1,241.7,144.1z M212.6,113.2C212.6,113.2,212.6,113.2,212.6,113.2c1.9,0,3.6,1.2,4.3,2.9      c1.4,3.6,2.9,7.1,4.3,10.7c3.5,8.7,11.5,14.3,20.4,14.3c0.1,0,0.2,0,0.3,0l1.9,0c4.7-0.1,9.4-2.1,13-5.5      c3.7-3.5,5.8-7.9,5.9-12.6c0.1-4.9,0-9.9-0.2-14.8c-0.3-6.8-6.5-12.6-13.4-12.7h-73c-7,0.1-13.1,6-13.4,12.7      c-0.2,4.9-0.3,9.9-0.2,14.8c0.1,4.6,2.2,9.1,5.9,12.6c3.6,3.4,8.3,5.4,13,5.5l1.8,0c9.1,0.1,17.2-5.5,20.7-14.3      c1.4-3.6,2.9-7.3,4.3-10.7C209,114.3,210.7,113.2,212.6,113.2z" fill="#000000"/>
			</g>
			<g>
				<path d="M257.7,111.4c-0.8,0-1.4-0.6-1.5-1.4c0-0.5,0-0.9-0.1-1.4c-0.2-3.3-3.6-6.6-7.2-6.7h-30.6c-0.8,0-1.5-0.7-1.5-1.5      s0.7-1.5,1.5-1.5h30.6c0,0,0,0,0,0c5.1,0.1,9.8,4.6,10,9.4c0,0.5,0,0.9,0.1,1.4C259.2,110.7,258.6,111.4,257.7,111.4      C257.7,111.4,257.7,111.4,257.7,111.4z" fill="#000000"/>
			</g>
			<g>
				<path d="M167.6,111.4C167.6,111.4,167.5,111.4,167.6,111.4c-0.9,0-1.5-0.7-1.5-1.5c0-0.5,0-1,0.1-1.4c0.2-4.9,4.9-9.3,10-9.4      c0,0,0,0,0,0h30.6c0.8,0,1.5,0.7,1.5,1.5s-0.7,1.5-1.5,1.5h-30.6c-3.5,0.1-7,3.3-7.1,6.7c0,0.5,0,0.9-0.1,1.4      C169,110.8,168.3,111.4,167.6,111.4z" fill="#000000"/>
			</g>
			<g>
				<path d="M268.6,126.5h-4.5c-0.8,0-1.5-0.7-1.5-1.5c0-0.8,0.7-1.5,1.5-1.5h4.5c0.5,0,0.9-0.4,0.9-0.9v-12.9      c0-0.5-0.4-0.9-0.9-0.9h-4.5c-0.8,0-1.5-0.7-1.5-1.5c0-0.8,0.7-1.5,1.5-1.5h4.5c2.1,0,3.8,1.7,3.8,3.8v12.9      C272.4,124.8,270.7,126.5,268.6,126.5z" fill="#000000"/>
			</g>
			<g>
				<path d="M161.1,126.5h-4.5c-2.1,0-3.8-1.7-3.8-3.8v-12.9c0-2.1,1.7-3.8,3.8-3.8h4.5c0.8,0,1.5,0.7,1.5,1.5      c0,0.8-0.7,1.5-1.5,1.5h-4.5c-0.5,0-0.9,0.4-0.9,0.9v12.9c0,0.5,0.4,0.9,0.9,0.9h4.5c0.8,0,1.5,0.7,1.5,1.5      C162.6,125.8,161.9,126.5,161.1,126.5z" fill="#000000"/>
			</g>
		</g>
	</g>
	<g id="XMLID_00000071541890424250281100000006134791583434421670_">
		<g>
			<path class="st0" d="M24.9,222.7h144.9l11.1,14.8h64.8l11.1-14.8h144.9v0.1c0,22-20.3,39.8-45.4,39.8H70.3     C45.2,262.6,24.9,244.8,24.9,222.7L24.9,222.7z" fill="#000000"/>
		</g>
		<g>
			<path d="M372.8,206.6H364V23c0-7.3-5.9-13.2-13.1-13.2H75.6c-7.2,0-13.1,5.9-13.1,13.2v183.6h-8.8V23c0-12.1,9.8-22,21.9-22     h275.3c12.1,0,21.9,9.9,21.9,22V206.6z" fill="#000000"/>
			<path d="M356.2,267H70.3c-27.5,0-49.8-19.8-49.8-44.2c0-2.4,2-4.5,4.4-4.5h144.9c1.4,0,2.7,0.7,3.5,1.8l9.8,13h60.4l9.8-13     c0.8-1.1,2.1-1.8,3.5-1.8h144.9c2.4,0,4.4,2,4.4,4.4v0.1C406,247.2,383.6,267,356.2,267z M29.6,227.1     c2.5,17.5,19.8,31.1,40.7,31.1h285.9c20.9,0,38.2-13.6,40.7-31.1h-138l-9.8,13c-0.8,1.1-2.1,1.8-3.5,1.8h-64.8     c-1.4,0-2.7-0.7-3.5-1.8l-9.8-13H29.6z" fill="#000000"/>
		</g>
	</g>
</g>
</svg>