<?xml version="1.0" encoding="UTF-8"?>
<svg xmlns="http://www.w3.org/2000/svg" width="213" height="22" viewBox="0 0 213 22" fill="none">
  <path d="M7.49805 16L6.44336 13.2812H3.00977L1.96094 16H0.953125L4.30469 7.39844H5.20117L8.5293 16H7.49805ZM6.14453 12.3965L5.14258 9.69531C5.11914 9.625 5.08008 9.50977 5.02539 9.34961C4.97461 9.18945 4.92188 9.02344 4.86719 8.85156C4.8125 8.67969 4.76758 8.54102 4.73242 8.43555C4.69336 8.5957 4.65039 8.75586 4.60352 8.91602C4.56055 9.07227 4.51758 9.21875 4.47461 9.35547C4.43164 9.48828 4.39453 9.60156 4.36328 9.69531L3.34375 12.3965H6.14453ZM10.9844 16L8.54688 9.57812H9.58984L11.002 13.4629C11.0996 13.7285 11.1992 14.0215 11.3008 14.3418C11.4023 14.6621 11.4727 14.9199 11.5117 15.1152H11.5527C11.5996 14.9199 11.6777 14.6621 11.7871 14.3418C11.8965 14.0176 11.9961 13.7246 12.0859 13.4629L13.498 9.57812H14.541L12.0977 16H10.9844ZM17.9746 9.47266C18.7402 9.47266 19.3086 9.64453 19.6797 9.98828C20.0508 10.332 20.2363 10.8809 20.2363 11.6348V16H19.5273L19.3398 15.0508H19.293C19.1133 15.2852 18.9258 15.4824 18.7305 15.6426C18.5352 15.7988 18.3086 15.918 18.0508 16C17.7969 16.0781 17.4844 16.1172 17.1133 16.1172C16.7227 16.1172 16.375 16.0488 16.0703 15.9121C15.7695 15.7754 15.5312 15.5684 15.3555 15.291C15.1836 15.0137 15.0977 14.6621 15.0977 14.2363C15.0977 13.5957 15.3516 13.1035 15.8594 12.7598C16.3672 12.416 17.1406 12.2285 18.1797 12.1973L19.2871 12.1504V11.7578C19.2871 11.2031 19.168 10.8145 18.9297 10.5918C18.6914 10.3691 18.3555 10.2578 17.9219 10.2578C17.5859 10.2578 17.2656 10.3066 16.9609 10.4043C16.6562 10.502 16.3672 10.6172 16.0938 10.75L15.7949 10.0117C16.084 9.86328 16.416 9.73633 16.791 9.63086C17.166 9.52539 17.5605 9.47266 17.9746 9.47266ZM19.2754 12.8359L18.2969 12.877C17.4961 12.9082 16.9316 13.0391 16.6035 13.2695C16.2754 13.5 16.1113 13.8262 16.1113 14.248C16.1113 14.6152 16.2227 14.8867 16.4453 15.0625C16.668 15.2383 16.9629 15.3262 17.3301 15.3262C17.9004 15.3262 18.3672 15.168 18.7305 14.8516C19.0938 14.5352 19.2754 14.0605 19.2754 13.4277V12.8359ZM23.2129 9.57812V16H22.2402V9.57812H23.2129ZM22.7383 7.17578C22.8984 7.17578 23.0352 7.22852 23.1484 7.33398C23.2656 7.43555 23.3242 7.5957 23.3242 7.81445C23.3242 8.0293 23.2656 8.18945 23.1484 8.29492C23.0352 8.40039 22.8984 8.45312 22.7383 8.45312C22.5703 8.45312 22.4297 8.40039 22.3164 8.29492C22.207 8.18945 22.1523 8.0293 22.1523 7.81445C22.1523 7.5957 22.207 7.43555 22.3164 7.33398C22.4297 7.22852 22.5703 7.17578 22.7383 7.17578ZM26.2539 16H25.2754V6.88281H26.2539V16ZM30.7129 9.47266C31.4785 9.47266 32.0469 9.64453 32.418 9.98828C32.7891 10.332 32.9746 10.8809 32.9746 11.6348V16H32.2656L32.0781 15.0508H32.0312C31.8516 15.2852 31.6641 15.4824 31.4688 15.6426C31.2734 15.7988 31.0469 15.918 30.7891 16C30.5352 16.0781 30.2227 16.1172 29.8516 16.1172C29.4609 16.1172 29.1133 16.0488 28.8086 15.9121C28.5078 15.7754 28.2695 15.5684 28.0938 15.291C27.9219 15.0137 27.8359 14.6621 27.8359 14.2363C27.8359 13.5957 28.0898 13.1035 28.5977 12.7598C29.1055 12.416 29.8789 12.2285 30.918 12.1973L32.0254 12.1504V11.7578C32.0254 11.2031 31.9062 10.8145 31.668 10.5918C31.4297 10.3691 31.0938 10.2578 30.6602 10.2578C30.3242 10.2578 30.0039 10.3066 29.6992 10.4043C29.3945 10.502 29.1055 10.6172 28.832 10.75L28.5332 10.0117C28.8223 9.86328 29.1543 9.73633 29.5293 9.63086C29.9043 9.52539 30.2988 9.47266 30.7129 9.47266ZM32.0137 12.8359L31.0352 12.877C30.2344 12.9082 29.6699 13.0391 29.3418 13.2695C29.0137 13.5 28.8496 13.8262 28.8496 14.248C28.8496 14.6152 28.9609 14.8867 29.1836 15.0625C29.4062 15.2383 29.7012 15.3262 30.0684 15.3262C30.6387 15.3262 31.1055 15.168 31.4688 14.8516C31.832 14.5352 32.0137 14.0605 32.0137 13.4277V12.8359ZM35.9512 6.88281V9.16211C35.9512 9.42383 35.9434 9.67773 35.9277 9.92383C35.916 10.1699 35.9062 10.3613 35.8984 10.498H35.9512C36.127 10.209 36.3809 9.96484 36.7129 9.76562C37.0449 9.56641 37.4688 9.4668 37.9844 9.4668C38.7891 9.4668 39.4297 9.74609 39.9062 10.3047C40.3867 10.8594 40.627 11.6855 40.627 12.7832C40.627 13.5059 40.5176 14.1152 40.2988 14.6113C40.0801 15.1074 39.7715 15.4824 39.373 15.7363C38.9746 15.9902 38.5039 16.1172 37.9609 16.1172C37.4531 16.1172 37.0352 16.0234 36.707 15.8359C36.3828 15.6445 36.1328 15.4121 35.957 15.1387H35.8809L35.6816 16H34.9785V6.88281H35.9512ZM37.8262 10.2812C37.3613 10.2812 36.9922 10.373 36.7188 10.5566C36.4453 10.7363 36.248 11.0098 36.127 11.377C36.0098 11.7402 35.9512 12.2012 35.9512 12.7598V12.8125C35.9512 13.6211 36.0859 14.2402 36.3555 14.6699C36.625 15.0957 37.1152 15.3086 37.8262 15.3086C38.4238 15.3086 38.8711 15.0898 39.168 14.6523C39.4688 14.2148 39.6191 13.5898 39.6191 12.7773C39.6191 11.9492 39.4707 11.3262 39.1738 10.9082C38.8809 10.4902 38.4316 10.2812 37.8262 10.2812ZM43.3047 16H42.3262V6.88281H43.3047V16ZM47.834 9.46094C48.3809 9.46094 48.8496 9.58203 49.2402 9.82422C49.6309 10.0664 49.9297 10.4062 50.1367 10.8438C50.3438 11.2773 50.4473 11.7852 50.4473 12.3672V12.9707H46.0117C46.0234 13.7246 46.2109 14.2988 46.5742 14.6934C46.9375 15.0879 47.4492 15.2852 48.1094 15.2852C48.5156 15.2852 48.875 15.248 49.1875 15.1738C49.5 15.0996 49.8242 14.9902 50.1602 14.8457V15.7012C49.8359 15.8457 49.5137 15.9512 49.1934 16.0176C48.877 16.084 48.502 16.1172 48.0684 16.1172C47.4512 16.1172 46.9121 15.9922 46.4512 15.7422C45.9941 15.4883 45.6387 15.1172 45.3848 14.6289C45.1309 14.1406 45.0039 13.543 45.0039 12.8359C45.0039 12.1445 45.1191 11.5469 45.3496 11.043C45.584 10.5352 45.9121 10.1445 46.334 9.87109C46.7598 9.59766 47.2598 9.46094 47.834 9.46094ZM47.8223 10.2578C47.3027 10.2578 46.8887 10.4277 46.5801 10.7676C46.2715 11.1074 46.0879 11.582 46.0293 12.1914H49.4277C49.4238 11.8086 49.3633 11.4727 49.2461 11.1836C49.1328 10.8906 48.959 10.6641 48.7246 10.5039C48.4902 10.3398 48.1895 10.2578 47.8223 10.2578ZM60.7539 12.7773C60.7539 13.3047 60.6855 13.7754 60.5488 14.1895C60.4121 14.6035 60.2148 14.9531 59.957 15.2383C59.6992 15.5234 59.3867 15.7422 59.0195 15.8945C58.6562 16.043 58.2441 16.1172 57.7832 16.1172C57.3535 16.1172 56.959 16.043 56.5996 15.8945C56.2441 15.7422 55.9355 15.5234 55.6738 15.2383C55.416 14.9531 55.2148 14.6035 55.0703 14.1895C54.9297 13.7754 54.8594 13.3047 54.8594 12.7773C54.8594 12.0742 54.9785 11.4766 55.2168 10.9844C55.4551 10.4883 55.7949 10.1113 56.2363 9.85352C56.6816 9.5918 57.2109 9.46094 57.8242 9.46094C58.4102 9.46094 58.9219 9.5918 59.3594 9.85352C59.8008 10.1152 60.1426 10.4941 60.3848 10.9902C60.6309 11.4824 60.7539 12.0781 60.7539 12.7773ZM55.8672 12.7773C55.8672 13.293 55.9355 13.7402 56.0723 14.1191C56.209 14.498 56.4199 14.791 56.7051 14.998C56.9902 15.2051 57.3574 15.3086 57.8066 15.3086C58.252 15.3086 58.6172 15.2051 58.9023 14.998C59.1914 14.791 59.4043 14.498 59.541 14.1191C59.6777 13.7402 59.7461 13.293 59.7461 12.7773C59.7461 12.2656 59.6777 11.8242 59.541 11.4531C59.4043 11.0781 59.1934 10.7891 58.9082 10.5859C58.623 10.3828 58.2539 10.2812 57.8008 10.2812C57.1328 10.2812 56.6426 10.502 56.3301 10.9434C56.0215 11.3848 55.8672 11.9961 55.8672 12.7773ZM65.4766 9.46094C66.2383 9.46094 66.8145 9.64844 67.2051 10.0234C67.5957 10.3945 67.791 10.9922 67.791 11.8164V16H66.8301V11.8809C66.8301 11.3457 66.707 10.9453 66.4609 10.6797C66.2188 10.4141 65.8457 10.2812 65.3418 10.2812C64.6309 10.2812 64.1309 10.4824 63.8418 10.8848C63.5527 11.2871 63.4082 11.8711 63.4082 12.6367V16H62.4355V9.57812H63.2207L63.3672 10.5039H63.4199C63.5566 10.2773 63.7305 10.0879 63.9414 9.93555C64.1523 9.7793 64.3887 9.66211 64.6504 9.58398C64.9121 9.50195 65.1875 9.46094 65.4766 9.46094Z" fill="white"></path>
  <path d="M84.9531 6.03173L90.6374 5.25069V10.718L84.9531 10.7615V6.03173ZM90.6374 11.3255V16.7929L84.9531 16.0119V11.3255H90.6374ZM91.3317 5.1639L98.8385 4.0791V10.6313L91.3317 10.6747V5.1639ZM98.8385 11.3689V17.9211L91.3317 16.8797V11.4123H98.8385V11.3689Z" fill="white"></path>
  <path d="M115.477 8.65715V8.52697L115.13 8.57037C115.043 8.57037 114.956 8.61376 114.913 8.61376C114.869 8.65715 114.826 8.70054 114.826 8.74393C114.826 8.78732 114.869 8.87411 114.913 8.87411C114.956 8.9175 115.043 8.9175 115.13 8.9175C115.173 8.9175 115.216 8.9175 115.26 8.87411C115.303 8.87411 115.347 8.83072 115.39 8.78732C115.433 8.74393 115.433 8.74393 115.477 8.70054C115.477 8.74393 115.477 8.70054 115.477 8.65715ZM114.783 4.05762C110.921 4.05762 107.84 7.13844 107.84 11.0003C107.84 14.8622 110.921 17.943 114.783 17.943C118.644 17.943 121.725 14.8622 121.725 11.0003C121.725 7.09504 118.644 4.05762 114.783 4.05762ZM116.128 8.13645C116.171 8.04966 116.214 7.96288 116.258 7.91949C116.301 7.83271 116.388 7.78931 116.475 7.78931C116.562 7.74592 116.648 7.74592 116.735 7.74592C116.822 7.74592 116.909 7.74592 116.996 7.78931C117.082 7.83271 117.126 7.8761 117.169 7.91949C117.212 7.96288 117.256 8.00627 117.299 8.09306C117.343 8.13645 117.343 8.22323 117.343 8.31002H117.082C117.082 8.26662 117.082 8.22323 117.039 8.22323C117.039 8.17984 116.996 8.17984 116.952 8.13645C116.909 8.09306 116.909 8.09306 116.865 8.09306C116.822 8.09306 116.779 8.09306 116.735 8.09306C116.692 8.09306 116.605 8.09306 116.562 8.13645C116.518 8.17984 116.475 8.17984 116.431 8.22323C116.388 8.26662 116.388 8.31002 116.345 8.3968C116.345 8.44019 116.301 8.52697 116.301 8.61376C116.301 8.70054 116.301 8.74393 116.345 8.83072C116.345 8.87411 116.388 8.96089 116.431 9.00428C116.475 9.04768 116.518 9.09107 116.562 9.09107C116.605 9.13446 116.648 9.13446 116.735 9.13446C116.822 9.13446 116.909 9.09107 116.952 9.04768C116.996 9.00428 117.039 8.9175 117.082 8.83072H117.343C117.343 8.9175 117.299 8.96089 117.299 9.04768C117.256 9.09107 117.212 9.17785 117.169 9.22124C117.126 9.26463 117.039 9.30803 116.996 9.30803C116.952 9.30803 116.822 9.35142 116.735 9.35142C116.648 9.35142 116.518 9.35142 116.431 9.30803C116.345 9.26464 116.258 9.22124 116.214 9.17785C116.171 9.13446 116.128 9.04768 116.084 8.96089C116.041 8.87411 116.041 8.74393 116.041 8.65715C116.084 8.35341 116.084 8.26662 116.128 8.13645ZM112.179 7.74592H112.439V8.00627C112.439 7.96288 112.483 7.91949 112.526 7.8761C112.57 7.83271 112.57 7.83271 112.613 7.78931C112.656 7.74592 112.7 7.74592 112.743 7.74592C112.787 7.74592 112.83 7.74592 112.873 7.74592C112.96 7.74592 113.047 7.78931 113.134 7.83271C113.22 7.8761 113.264 7.96288 113.264 8.04966C113.264 8.00627 113.307 7.96288 113.351 7.91949C113.394 7.8761 113.437 7.8761 113.437 7.83271C113.437 7.78931 113.524 7.78931 113.568 7.78931C113.611 7.78931 113.654 7.78931 113.698 7.78931C113.785 7.78931 113.828 7.78931 113.915 7.83271C113.958 7.8761 114.045 7.8761 114.045 7.91949C114.088 7.96288 114.132 8.00627 114.132 8.09306C114.175 8.13645 114.175 8.22323 114.175 8.31002V9.30803H113.871V8.3968C113.871 8.31002 113.828 8.22323 113.785 8.17984C113.741 8.13645 113.654 8.09306 113.568 8.09306C113.524 8.09306 113.481 8.09306 113.437 8.13645C113.394 8.13645 113.351 8.17984 113.351 8.22323C113.307 8.26662 113.307 8.26662 113.307 8.31002C113.307 8.35341 113.264 8.3968 113.264 8.44019V9.35142H112.96V8.3968C112.96 8.35341 112.96 8.31001 112.96 8.26662C112.96 8.22323 112.917 8.22323 112.917 8.17984C112.873 8.13645 112.873 8.13645 112.83 8.13645C112.787 8.13645 112.743 8.13645 112.7 8.13645C112.656 8.13645 112.613 8.13645 112.57 8.17984C112.526 8.17984 112.483 8.22323 112.483 8.26662C112.439 8.31001 112.439 8.31001 112.439 8.35341C112.439 8.3968 112.396 8.44019 112.396 8.48358V9.39481H112.136V7.74592H112.179ZM112.787 14.732C111.528 14.732 110.704 13.8642 110.704 12.4322C110.704 11.0003 111.485 10.1325 112.787 10.1325C114.088 10.1325 114.869 11.0437 114.869 12.4322C114.869 13.8208 114.088 14.732 112.787 14.732ZM115.173 9.17785C115.13 9.17785 115.086 9.17785 115.043 9.17785C114.956 9.17785 114.913 9.17785 114.826 9.13446C114.783 9.13446 114.696 9.09107 114.652 9.04768C114.609 9.00428 114.566 8.96089 114.566 8.9175C114.522 8.87411 114.522 8.78732 114.522 8.74393C114.522 8.61376 114.566 8.52697 114.652 8.44019C114.739 8.35341 114.869 8.31002 115.086 8.31002L115.477 8.26662V8.13645C115.477 8.04966 115.433 8.00627 115.39 7.96288C115.347 7.91949 115.26 7.8761 115.173 7.8761C115.13 7.8761 115.086 7.8761 115.043 7.8761C114.999 7.8761 114.999 7.91949 114.956 7.91949C114.913 7.91949 114.913 7.96288 114.913 8.00627C114.913 8.04966 114.869 8.04966 114.869 8.09306H114.609C114.609 8.04966 114.609 7.96288 114.652 7.91949C114.696 7.8761 114.739 7.83271 114.783 7.78931C114.826 7.74592 114.913 7.70253 114.956 7.70253C115.043 7.65914 115.086 7.65914 115.173 7.65914C115.26 7.65914 115.347 7.65914 115.433 7.70253C115.52 7.74592 115.564 7.74592 115.607 7.78931C115.65 7.83271 115.694 7.8761 115.737 7.91949C115.781 7.96288 115.781 8.04966 115.781 8.13645V9.13446H115.52V8.87411C115.52 8.9175 115.477 8.96089 115.433 8.96089C115.39 9.00428 115.347 9.00428 115.347 9.04768C115.26 9.17785 115.216 9.17785 115.173 9.17785ZM116.996 14.732C116.041 14.732 115.347 14.2113 115.303 13.4302H115.954C115.998 13.9076 116.431 14.2113 117.039 14.2113C117.603 14.2113 118.037 13.9076 118.037 13.4736C118.037 13.1265 117.777 12.9095 117.212 12.736L116.648 12.6058C115.824 12.3888 115.433 12.0417 115.433 11.3908C115.433 10.6532 116.084 10.0891 117.039 10.0891C117.95 10.0891 118.601 10.6098 118.644 11.3908H118.037C117.994 10.9135 117.603 10.6532 117.082 10.6532C116.518 10.6532 116.128 10.9569 116.128 11.3474C116.128 11.6512 116.388 11.8681 116.952 11.9983L117.429 12.1285C118.341 12.3455 118.731 12.6926 118.731 13.3435C118.688 14.2113 118.037 14.732 116.996 14.732ZM112.787 10.6966C111.919 10.6966 111.355 11.3474 111.355 12.4322C111.355 13.517 111.919 14.1679 112.787 14.1679C113.654 14.1679 114.218 13.517 114.218 12.4322C114.218 11.3474 113.654 10.6966 112.787 10.6966Z" fill="white"></path>
  <path d="M140.833 12.9319C140.529 12.9319 140.269 12.6716 140.269 12.3678C140.269 12.0641 140.529 11.8037 140.833 11.8037C141.137 11.8037 141.397 12.0641 141.397 12.3678C141.397 12.6716 141.137 12.9319 140.833 12.9319ZM134.454 12.9319C134.151 12.9319 133.89 12.6716 133.89 12.3678C133.89 12.0641 134.151 11.8037 134.454 11.8037C134.758 11.8037 135.018 12.0641 135.018 12.3678C135.018 12.6716 134.758 12.9319 134.454 12.9319ZM141.05 9.46057L142.221 7.46455C142.308 7.33437 142.265 7.2042 142.135 7.11742C142.005 7.03063 141.874 7.07402 141.788 7.2042L140.616 9.24361C139.705 8.85309 138.707 8.59274 137.665 8.59274C136.624 8.59274 135.583 8.8097 134.715 9.24361L133.543 7.2042C133.456 7.07402 133.326 7.03063 133.196 7.11742C133.066 7.2042 133.022 7.33437 133.109 7.46455L134.281 9.46057C132.285 10.5454 130.94 12.5414 130.723 14.9279H144.565C144.391 12.5414 143.046 10.502 141.05 9.46057Z" fill="white"></path>
  <path d="M162.288 7.15992C163.894 7.15992 164.935 8.72203 164.935 8.72203C164.935 8.72203 163.373 9.54647 163.373 11.4123C163.373 13.5819 165.369 14.2762 165.369 14.2762C165.369 14.2762 163.807 17.9211 162.071 17.9211C161.073 17.9211 161.03 17.357 159.728 17.357C158.6 17.357 158.209 17.9211 157.341 17.9211C155.693 17.9211 153.566 14.3196 153.566 11.4123C153.566 8.37489 155.736 7.15992 157.081 7.15992C158.253 7.15992 158.773 7.85419 159.728 7.85419C160.509 7.85419 161.117 7.15992 162.288 7.15992ZM162.028 4.0791C162.288 5.59782 160.9 7.42027 159.294 7.33349C159.077 5.46764 160.813 4.16589 162.028 4.0791Z" fill="white"></path>
  <path d="M174.367 14.7969C174.411 14.7535 174.497 14.7101 174.584 14.7969C176.927 16.142 179.401 16.8363 182.134 16.8363C183.957 16.8363 185.736 16.4892 187.515 15.7949C187.558 15.7515 187.645 15.7515 187.732 15.7081C187.819 15.6647 187.862 15.6647 187.905 15.6213C188.036 15.5779 188.166 15.5779 188.253 15.7081C188.339 15.8383 188.296 15.9251 188.166 16.0119C187.992 16.142 187.775 16.2722 187.515 16.4458C186.734 16.9231 185.823 17.2702 184.868 17.5306C183.913 17.7909 182.915 17.9211 182.004 17.9211C180.572 17.9211 179.184 17.6607 177.925 17.1834C176.624 16.6627 175.495 15.9685 174.497 15.0572C174.454 15.0138 174.411 14.9704 174.411 14.9271C174.367 14.8837 174.367 14.8403 174.367 14.7969ZM178.533 10.8482C178.533 10.1973 178.663 9.67665 179.01 9.19934C179.314 8.76542 179.748 8.41828 180.312 8.15793C180.833 7.94097 181.44 7.8108 182.134 7.72401C182.395 7.68062 182.785 7.68062 183.349 7.59384V7.37688C183.349 6.76939 183.306 6.37887 183.176 6.16191C183.002 5.90156 182.655 5.72799 182.265 5.72799H182.134C181.831 5.77138 181.57 5.85817 181.353 6.03173C181.136 6.2053 181.006 6.42226 180.919 6.726C180.876 6.89957 180.789 7.02975 180.659 7.07314L179.097 6.89957C178.967 6.85618 178.837 6.76939 178.837 6.63922C178.837 6.59583 178.837 6.59583 178.837 6.55243C178.967 5.72799 179.401 5.12051 179.965 4.72998C180.572 4.33945 181.31 4.0791 182.091 4.0791H182.438C183.479 4.0791 184.304 4.33945 184.911 4.90355C184.998 4.99033 185.085 5.07711 185.172 5.20729C185.259 5.33746 185.302 5.42425 185.345 5.46764C185.389 5.55442 185.432 5.6846 185.475 5.81477C185.519 5.94495 185.519 6.07513 185.562 6.16191C185.606 6.2053 185.606 6.33548 185.606 6.55243C185.606 6.76939 185.606 6.85618 185.606 6.89957V10.2407C185.606 10.5011 185.649 10.6747 185.692 10.8916C185.736 11.1086 185.823 11.2388 185.909 11.3255C185.996 11.4123 186.083 11.5859 186.257 11.7595C186.3 11.8462 186.343 11.8896 186.343 11.9764C186.343 12.0632 186.3 12.1066 186.213 12.15C185.476 12.8009 185.042 13.1914 184.955 13.2348C184.825 13.3216 184.694 13.3216 184.564 13.2782C184.434 13.148 184.304 13.0612 184.217 12.931C184.13 12.8442 184.044 12.7575 184 12.7141C183.957 12.6707 183.87 12.5839 183.783 12.4537C183.696 12.3235 183.653 12.2368 183.61 12.1934C183.089 12.7575 182.568 13.1046 182.091 13.2348C181.787 13.3216 181.397 13.365 180.919 13.365C180.182 13.365 179.618 13.148 179.184 12.7141C178.75 12.2802 178.533 11.6727 178.533 10.8482ZM180.919 10.5879C180.919 10.935 181.006 11.2388 181.18 11.4557C181.353 11.6727 181.614 11.8028 181.917 11.8028C181.961 11.8028 181.961 11.8028 182.048 11.8028C182.091 11.8028 182.134 11.8028 182.134 11.8028C182.525 11.7161 182.829 11.4557 183.046 11.0652C183.132 10.8916 183.219 10.718 183.306 10.5011C183.349 10.2841 183.393 10.154 183.393 9.98039C183.393 9.85021 183.393 9.63325 183.393 9.32951V8.98238C182.829 8.98238 182.438 9.02577 182.178 9.11255C181.353 9.28612 180.919 9.80682 180.919 10.5879ZM186.777 15.0572C186.821 15.0138 186.821 15.0138 186.864 14.9271C187.124 14.7969 187.298 14.6667 187.515 14.5799C187.862 14.4931 188.209 14.4497 188.556 14.4497C188.643 14.4497 188.73 14.4497 188.817 14.4497C189.251 14.4931 189.468 14.5799 189.554 14.6667C189.598 14.7101 189.598 14.7969 189.598 14.9271V15.0138C189.598 15.361 189.511 15.7081 189.337 16.142C189.164 16.5759 188.903 16.9231 188.6 17.1834C188.556 17.2268 188.513 17.2268 188.47 17.2268C188.426 17.2268 188.426 17.2268 188.426 17.2268C188.383 17.1834 188.383 17.14 188.383 17.0966C188.73 16.2722 188.903 15.7515 188.903 15.4044C188.903 15.3176 188.86 15.2308 188.86 15.1874C188.773 15.0572 188.513 15.0138 188.079 15.0138C187.949 15.0138 187.732 15.0138 187.515 15.0572C187.255 15.1006 187.081 15.1006 186.864 15.144C186.821 15.144 186.777 15.144 186.734 15.1006C186.777 15.1006 186.777 15.1006 186.777 15.0572C186.777 15.1006 186.777 15.1006 186.777 15.0572Z" fill="white"></path>
  <path d="M202.895 10.9785C202.895 12.4104 204.066 13.582 205.498 13.582C206.93 13.582 208.102 12.4104 208.102 10.9785C208.102 9.54658 206.93 8.375 205.498 8.375C204.066 8.41839 202.895 9.54658 202.895 10.9785Z" fill="white"></path>
  <path d="M211.483 7.59384C211.483 7.55045 211.483 7.50705 211.483 7.46366C210.876 6.46565 210.008 5.59781 209.01 4.99033C207.968 4.38284 206.754 4.0791 205.539 4.0791C203.412 4.0791 201.46 5.03372 200.115 6.68261C200.071 6.726 200.071 6.76939 200.115 6.81279L202.067 10.1973C202.067 10.2407 202.111 10.2407 202.154 10.2407C202.197 10.2407 202.241 10.1973 202.241 10.154C202.631 8.67863 203.976 7.63723 205.495 7.63723C205.582 7.63723 205.669 7.63723 205.799 7.63723H211.353C211.396 7.63723 211.44 7.59384 211.483 7.59384Z" fill="white"></path>
  <path d="M206.538 14.2765C206.495 14.2331 206.452 14.2331 206.408 14.2331C206.104 14.3199 205.801 14.3633 205.497 14.3633C204.195 14.3633 202.98 13.5822 202.416 12.4107L199.639 7.59417C199.639 7.55078 199.596 7.55078 199.552 7.55078C199.509 7.55078 199.465 7.55078 199.465 7.59417C198.901 8.63558 198.598 9.80716 198.598 10.9787C198.598 12.671 199.205 14.2765 200.29 15.5349C201.375 16.7932 202.85 17.6177 204.499 17.8346C204.542 17.8346 204.586 17.8346 204.586 17.7912L206.538 14.4067C206.538 14.3633 206.538 14.3199 206.538 14.2765Z" fill="white"></path>
  <path d="M211.831 8.375H207.926C207.883 8.375 207.839 8.41839 207.839 8.46178C207.839 8.50518 207.839 8.54857 207.883 8.59196C208.534 9.24284 208.881 10.1107 208.881 11.0219C208.881 11.7162 208.664 12.367 208.273 12.9311L205.496 17.7476C205.496 17.791 205.496 17.8344 205.496 17.8778C205.496 17.9212 205.539 17.9212 205.583 17.9212C207.405 17.9212 209.141 17.1835 210.443 15.8818C211.745 14.58 212.439 12.8444 212.439 11.0219C212.439 10.1541 212.265 9.28623 211.961 8.50518C211.961 8.41839 211.918 8.375 211.831 8.375Z" fill="white"></path>
</svg>
