<svg xmlns="http://www.w3.org/2000/svg" width="223" height="223" viewBox="0 0 223 223" fill="none">
<circle cx="111.812" cy="111.812" r="83.8121" fill="#007cff"/>
<path d="M158.186 96.1952V107.516V144.722L70.6922 130.785L64.5289 122.433L68.1011 86.8371L80.4278 80.875L158.186 96.1952Z" fill="#16191C"/>
<path d="M130.632 193.503C124.946 190.335 120.623 187.178 118.54 185.4C118.304 181.847 117.948 177.186 117.503 172.319L101.76 165.728C101.526 165.635 100.588 164.983 98.7164 163.111C96.3769 160.772 96.2511 156.923 97.7101 154.281C98.8774 152.168 110.288 149.98 119.331 149.98C119.217 149.503 119.138 149.121 119.073 148.807C118.909 148.02 118.836 147.665 118.54 147.338C115.647 144.143 83.8741 137.427 70.7928 135.515C66.0132 134.816 60.5794 129.804 67.4974 126.257C73.9411 122.953 93.3489 126.372 101.408 127.791C102.001 127.896 102.532 127.989 102.993 128.069C106.416 128.658 113.831 130.893 121.85 133.31C131.884 136.334 142.863 139.643 148.149 140.37C151.092 140.775 151.092 128.706 151.092 123.591C151.092 117.151 151.117 112.773 152.45 105.554C153.784 98.3337 159.469 96.2458 162.865 97.5791C164.976 98.4076 164.803 102.957 164.617 107.847C164.504 110.825 164.387 113.93 164.777 116.396C165.252 119.398 167.004 123.233 169.367 128.408C172.134 134.465 175.738 142.357 179.116 152.898C179.646 154.551 180.48 156.348 181.573 158.281C169.888 175.789 151.787 188.649 130.632 193.503Z" fill="#F9F9F9"/>
<path d="M148.149 140.37C148.149 140.37 152.274 141.477 153.054 140.37M119.331 149.979L119.948 152.948M163.494 109.629C162.27 109.83 159.801 109.664 159.721 107.39C159.62 104.547 159.922 101.302 160.324 100.371" stroke="#16191C" stroke-linecap="round" fill="#000000"/>
<path d="M153.13 151.338C151.237 154.978 148.528 163.83 150.717 173.224M152.073 177.526C151.495 176.09 151.049 174.651 150.717 173.224M134.615 184.897C136.905 181.92 143.332 175.418 150.717 173.224M133.86 150.382L133.08 159.413" stroke="#16191C" stroke-linecap="round" fill="#000000"/>
<path d="M107.695 186.594C106.311 185.512 105.456 180.732 108.147 178.644L120.575 179.802C121.682 179.206 125.098 177.648 129.908 176.179C135.92 174.343 135.09 180.481 133.379 182.191C132.053 183.518 128.201 187.884 124.778 189.708C123.787 190.237 122.831 190.552 121.983 190.518C118.21 190.367 109.078 187.676 107.695 186.594Z" fill="#F9F9F9"/>
<path d="M129.908 176.18C135.92 174.343 135.175 179.876 133.379 182.192C132.408 183.445 130.171 185.824 127.722 187.743" stroke="#16191C" stroke-linecap="round" fill="#000000"/>
<path d="M99.1692 167.715C99.8333 166.427 103.102 164.814 104.653 164.168L119.018 169.577C122.514 168.361 130.187 166.145 132.904 167.011C136.3 168.092 136.526 171.187 135.596 172.193C134.665 173.199 125.558 179.287 123.797 179.991C122.036 180.696 113.156 180.52 110.691 179.991C108.225 179.463 99.8736 175.438 99.1692 174.029C98.4648 172.621 98.339 169.325 99.1692 167.715Z" fill="#F9F9F9"/>
<path d="M110.691 179.991C113.156 180.519 122.036 180.695 123.797 179.991C124.741 179.614 130.131 176.189 132.904 174.331M132.904 167.01C133.726 167.272 134.362 167.652 134.841 168.091C136.342 169.467 136.301 171.43 135.596 172.192C135.473 172.325 135.21 172.544 134.841 172.828" stroke="#16191C" stroke-linecap="round" fill="#000000"/>
<path d="M96.8029 156.917L96.8043 156.897C97.232 154.583 97.886 153.627 101.609 152.847C103.826 152.383 107.345 153.146 110.967 154.388C115.11 155.808 119.389 157.856 122.011 159.413C124.065 159.136 128.999 158.749 132.3 159.413C136.426 160.243 136.677 164.721 135.595 166.256C134.514 167.79 125.457 173.501 121.156 173.501C116.854 173.501 107.772 169.023 102.037 166.256C96.312 163.494 96.5518 160.281 96.8029 156.917Z" fill="#F9F9F9"/>
<path d="M102.037 166.256C107.773 169.023 116.854 173.501 121.156 173.501C125.458 173.501 134.514 167.79 135.596 166.256C136.677 164.721 136.426 160.243 132.3 159.413C129 158.749 124.066 159.136 122.011 159.413C119.39 157.856 115.111 155.808 110.968 154.388" stroke="#16191C" stroke-linecap="round" fill="#000000"/>
<path d="M48.1489 95.0576C50.4679 97.8475 52.7556 100.6 56.2524 105.679C58.2169 108.533 58.3254 113.236 58.422 117.423C58.5084 121.17 58.5853 124.505 59.9755 125.729C62.9188 128.32 65.686 128.496 68.4532 125.729C71.2204 122.961 74.7926 112.069 74.1386 107.339C74.0086 106.4 73.7952 105.289 73.5635 104.083C72.6291 99.2204 71.3971 92.8089 74.1386 89.8054C77.4678 86.1579 100.664 88.9899 106.87 89.7475C107.042 89.7685 107.2 89.7878 107.345 89.8054C109.71 90.0928 113.737 91.3695 118.238 92.7967C123.981 94.6174 130.496 96.6831 135.319 97.2516C147.696 98.7107 160.224 99.2138 165.104 97.2516C169.984 95.2895 171.469 88.296 161.532 86.9879C157.447 86.4501 152.595 85.4973 148.19 84.6321C144.022 83.8136 140.254 83.0735 137.91 82.8371C131.259 81.2682 118.313 76.2943 109.088 72.7503L108.955 72.6991C113.584 72.6655 122.992 71.2111 122.992 65.6553C122.992 61.4793 121.961 58.9637 117.558 57.2027C118.841 56.2133 121.141 53.3035 120.074 49.5803C119.361 47.0899 118.137 44.6497 115.672 43.9705C117.139 43.5261 118.797 40.6452 118.187 36.9519C117.397 32.1589 113.241 30.3061 103.191 28.438C72.8894 31.5342 47.3664 50.7729 35.3608 77.4151C35.4069 77.5042 35.4528 77.5924 35.4984 77.68C41.8186 87.4423 45.0124 91.2845 48.1489 95.0576Z" fill="#F9F9F9"/>
<path d="M117.558 57.2025C113.735 56.6592 110.23 56.9761 108.955 57.2025M115.672 43.9703C113.699 43.4269 110.372 43.224 108.955 43.1904M165.104 94.1069C162.27 94.4004 158.158 93.7547 157.607 92.9497C157.28 92.4718 156.797 87.9386 157.28 87.7172C157.763 87.4958 158.379 87.4237 158.614 87.516M59.5479 113.804C59.5479 112.597 66.818 115.037 67.2205 116.068C67.623 117.1 68.0708 120.164 66.6419 124.169M163.192 97.819C161.49 98.194 159.321 98.4111 156.827 98.4975M68.2268 125.98C67.7572 126.399 66.5816 127.298 65.6357 127.54" stroke="#16191C" stroke-linecap="round" fill="#000000"/>
<path d="M108.955 72.6741L106.188 71.2905" stroke="#16191C" stroke-linecap="round" fill="#000000"/>
<path d="M123.03 110.23C123.657 110.676 123.566 111.634 122.865 111.954L105.5 119.89C104.8 120.21 104.016 119.652 104.089 118.885L105.899 99.8783C105.972 99.112 106.847 98.712 107.474 99.1584L123.03 110.23Z" fill="#007cff"/>
</svg>