<svg xmlns="http://www.w3.org/2000/svg" xmlns:xlink="http://www.w3.org/1999/xlink" version="1.1" id="Layer_1" x="0px" y="0px" width="426px" height="268px" viewBox="0 0 426 268" style="enable-background:new 0 0 426 268;" xml:space="preserve">
<style type="text/css">
	.st0{fill:#FFFFFF;}
	.st1{fill:#03a9f4;}
</style>
<g>
	<rect x="46" y="6.6" class="st0" width="307.7" height="191.3" fill="#000000"/>
	<g id="XMLID_00000093138378721803236020000005212066675074178702_">
		<g>
			<polygon class="st1" points="355.3,198.1 356.3,198.1 356.3,231.5 230.3,231.5 173.3,231.5 45,231.5 45,198.1 46,198.1      355.2,198.1    " fill="#000000"/>
		</g>
		<g>
			<path d="M356.3,235.4H45c-2.2,0-3.9-1.7-3.9-3.9V4.9C41.1,2.7,42.8,1,45,1h311.4c2.2,0,3.9,1.7,3.9,3.9v226.6     C360.2,233.6,358.5,235.4,356.3,235.4z M48.9,227.6h303.5V8.8H48.9V227.6z" fill="#000000"/>
			<rect x="46" y="194.2" width="309.2" height="7.8" fill="#000000"/>
			<rect x="169.4" y="231.5" width="7.8" height="30.2" fill="#000000"/>
			<rect x="226.4" y="231.5" width="7.8" height="30.2" fill="#000000"/>
			<rect x="139.2" y="259.6" width="125.3" height="7.8" fill="#000000"/>
		</g>
	</g>
	<rect x="304.2" y="144.8" class="st0" width="81.5" height="95.8" fill="#000000"/>
	<g id="XMLID_00000094605200519966138150000014698490569916235418_">
		<g>
			<g id="XMLID_00000049223961262544908360000002311909985682909844_">
				<g>
					<g>
						<path class="st1" d="M387.8,127.8v17h-84.5v-17c0-2.6,2.1-4.8,4.8-4.8h75C385.7,123,387.8,125.2,387.8,127.8z" fill="#000000"/>
					</g>
					<g>
						<path class="st1" d="M387.8,242.5v17c0,2.6-2.1,4.8-4.8,4.8h-75c-2.6,0-4.8-2.1-4.8-4.8v-17H387.8z" fill="#000000"/>
					</g>
				</g>
				<g>
					<g>
						<path d="M383,267.6h-75c-4.4,0-8-3.6-8-8V127.8c0-4.4,3.6-8,8-8h75c4.4,0,8,3.6,8,8v131.8C391,264,387.4,267.6,383,267.6z         M308.1,126.2c-0.9,0-1.6,0.7-1.6,1.6v131.8c0,0.9,0.7,1.6,1.6,1.6h75c0.9,0,1.6-0.7,1.6-1.6V127.8c0-0.9-0.7-1.6-1.6-1.6        H308.1z" fill="#000000"/>
					</g>
					<g>
						<rect x="303.3" y="239.3" width="84.5" height="6.4" fill="#000000"/>
					</g>
					<g>
						<rect x="303.3" y="141.7" width="84.5" height="6.4" fill="#000000"/>
					</g>
					<g>
						<rect x="342.1" y="250.3" width="7.5" height="6.4" fill="#000000"/>
					</g>
				</g>
			</g>
		</g>
	</g>
</g>
</svg>