<svg xmlns="http://www.w3.org/2000/svg" xmlns:xlink="http://www.w3.org/1999/xlink" version="1.1" id="Layer_1" x="0px" y="0px" width="426px" height="268px" viewBox="0 0 426 268" style="enable-background:new 0 0 426 268;" xml:space="preserve">
<style type="text/css">
	.st0{fill:#03a9f4;}
</style>
<g id="XMLID_00000109017553628860176510000000544949747576798116_">
	<g>
		<g>
			<g>
				<path class="st0" d="M339.9,130.6c18.7,13.2,31,35,31,59.6c0,40.3-32.7,72.9-73,72.9s-73-32.6-73-72.9c0-40.3,32.7-72.9,73-72.9      c2.4,0,4.9,0.1,7.2,0.4C318,118.9,329.9,123.5,339.9,130.6z M326.7,224.6v-45.2H316h-36.3H269v45.2H326.7z" fill="#000000"/>
			</g>
			<g>
				<path class="st0" d="M305.2,46.6v33.9h-21.1H60.8V46.6c0-4,3.3-7.3,7.3-7.3h27.4h9.1h193.4C301.9,39.3,305.2,42.5,305.2,46.6z" fill="#000000"/>
			</g>
		</g>
	</g>
	<g>
		<g>
			<path d="M275.7,179.4v-14.9c0-12.3,9.9-22.3,22.1-22.3c5.9,0,11.5,2.3,15.7,6.5c4.2,4.2,6.5,9.8,6.5,15.7v14.9H312v-14.9     c0-3.8-1.5-7.4-4.2-10.2c-2.7-2.7-6.2-4.2-10-4.2c-7.8,0-14.2,6.4-14.2,14.4v14.9L275.7,179.4z" fill="#000000"/>
		</g>
		<g>
			<path d="M330.6,228.6H265v-53.2h65.6V228.6z M273,220.7h49.7v-37.3H273V220.7z" fill="#000000"/>
		</g>
		<g>
			<path d="M343.9,130.6h-7.9V12.3c0-1.8-1.5-3.3-3.3-3.3H102.7c-1.8,0-3.3,1.5-3.3,3.3v27h-7.9v-27C91.5,6.1,96.5,1,102.7,1h229.9     c6.2,0,11.3,5.1,11.3,11.3V130.6z" fill="#000000"/>
		</g>
		<g>
			<path d="M212.8,233.3H68.1c-6.2,0-11.3-5.1-11.3-11.3V46.6c0-6.2,5.1-11.3,11.3-11.3h229.9c6.2,0,11.3,5.1,11.3,11.3V116h-7.9     V46.6c0-1.8-1.5-3.3-3.3-3.3H68.1c-1.8,0-3.3,1.5-3.3,3.3v175.5c0,1.8,1.5,3.3,3.3,3.3h144.7V233.3z" fill="#000000"/>
		</g>
		<g>
			<polygon points="305.2,84.4 60.8,84.4 60.7,76.5 305.2,76.5    " fill="#000000"/>
		</g>
		<g>
			<rect x="89" y="57.2" width="12.4" height="7.9" fill="#000000"/>
		</g>
		<g>
			<rect x="111.2" y="57.2" width="12.4" height="7.9" fill="#000000"/>
		</g>
		<g>
			<rect x="133.4" y="57.2" width="12.4" height="7.9" fill="#000000"/>
		</g>
		<g>
			<path d="M297.8,267c-42.5,0-77-34.5-77-76.9c0-42.4,34.5-76.9,77-76.9c2.6,0,5.1,0.1,7.6,0.4c13.2,1.3,25.9,6,36.7,13.7     c20.4,14.4,32.6,37.9,32.6,62.8C374.8,232.5,340.3,267,297.8,267z M297.8,121.2c-38.1,0-69.1,30.9-69.1,68.9     c0,38,31,68.9,69.1,68.9c38.1,0,69.1-30.9,69.1-68.9c0-22.4-10.9-43.4-29.3-56.3l0,0c-9.7-6.9-21.1-11.1-32.9-12.2     C302.4,121.3,300.1,121.2,297.8,121.2z" fill="#000000"/>
		</g>
		<g>
			<path d="M98.4,142.4h-2.1c-5.9,0-10.7-4.8-10.7-10.6v-7.3c0-5.9,4.8-10.7,10.7-10.7h2.1c5.9,0,10.6,4.8,10.6,10.7v7.3     C109.1,137.6,104.3,142.4,98.4,142.4z M96.3,121.7c-1.5,0-2.7,1.2-2.7,2.7v7.3c0,1.5,1.2,2.7,2.7,2.7h2.1c1.5,0,2.7-1.2,2.7-2.7     v-7.3c0-1.5-1.2-2.7-2.7-2.7H96.3z" fill="#000000"/>
		</g>
		<g>
			<path d="M152.1,142.4H150c-5.9,0-10.7-4.8-10.7-10.6v-7.3c0-5.9,4.8-10.7,10.7-10.7h2.1c5.9,0,10.6,4.8,10.6,10.7v7.3     C162.8,137.6,158,142.4,152.1,142.4z M150,121.7c-1.5,0-2.7,1.2-2.7,2.7v7.3c0,1.5,1.2,2.7,2.7,2.7h2.1c1.5,0,2.7-1.2,2.7-2.7     v-7.3c0-1.5-1.2-2.7-2.7-2.7H150z" fill="#000000"/>
		</g>
		<g>
			<rect x="119.5" y="113.8" width="7.9" height="28.6" fill="#000000"/>
		</g>
		<g>
			<rect x="174.7" y="113.8" width="7.9" height="28.6" fill="#000000"/>
		</g>
		<g>
			<rect x="196.8" y="113.8" width="7.9" height="28.6" fill="#000000"/>
		</g>
		<g>
			<path d="M194.1,198.6h-2.1c-5.9,0-10.6-4.8-10.6-10.6v-7.3c0-5.9,4.8-10.6,10.6-10.6h2.1c5.9,0,10.6,4.8,10.6,10.6v7.3     C204.7,193.8,199.9,198.6,194.1,198.6z M191.9,177.9c-1.5,0-2.7,1.2-2.7,2.7v7.3c0,1.5,1.2,2.7,2.7,2.7h2.1     c1.5,0,2.7-1.2,2.7-2.7v-7.3c0-1.5-1.2-2.7-2.7-2.7H191.9z" fill="#000000"/>
		</g>
		<g>
			<path d="M140.4,198.6h-2.1c-5.9,0-10.6-4.8-10.6-10.6v-7.3c0-5.9,4.8-10.6,10.6-10.6h2.1c5.9,0,10.6,4.8,10.6,10.6v7.3     C151,193.8,146.3,198.6,140.4,198.6z M138.3,177.9c-1.5,0-2.7,1.2-2.7,2.7v7.3c0,1.5,1.2,2.7,2.7,2.7h2.1c1.5,0,2.7-1.2,2.7-2.7     v-7.3c0-1.5-1.2-2.7-2.7-2.7H138.3z" fill="#000000"/>
		</g>
		<g>
			<rect x="163" y="170" width="7.9" height="28.6" fill="#000000"/>
		</g>
		<g>
			<rect x="107.8" y="170" width="7.9" height="28.6" fill="#000000"/>
		</g>
		<g>
			<rect x="85.6" y="170" width="7.9" height="28.6" fill="#000000"/>
		</g>
		<g>
			<rect x="292.8" y="202.1" width="7.9" height="9.7" fill="#000000"/>
		</g>
		<g>
			<path d="M296.8,206.1c-4.1,0-7.5-3.4-7.5-7.5s3.4-7.5,7.5-7.5c4.1,0,7.5,3.4,7.5,7.5S300.9,206.1,296.8,206.1z M296.8,198.2     c-0.2,0-0.4,0.2-0.4,0.4c0,0.2,0.2,0.4,0.4,0.4c0.2,0,0.4-0.2,0.4-0.4C297.2,198.4,297,198.2,296.8,198.2z" fill="#000000"/>
		</g>
	</g>
</g>
</svg>