<svg xmlns="http://www.w3.org/2000/svg" width="200" height="166.238" viewBox="0 0 200 166.238">
  <g id="cyberghost-vpn-online-protection-3" transform="translate(-169.601 -2400.836)">
    <g id="Group_19459" data-name="Group 19459" transform="translate(169.601 2400.836)">
      <g id="Group_19452" data-name="Group 19452">
        <path id="Path_1142-2" data-name="Path 1142-2" d="M1176.713,591.413c0,3.172-17.574,5.735-39.241,5.735s-39.233-2.58-39.233-5.735,14.7-4.59,36.378-4.59S1176.713,588.251,1176.713,591.413Z" transform="translate(-1053.679 -431.428)" fill="#263238" opacity="0.22" style="mix-blend-mode: normal;isolation: isolate"/>
        <path id="Path_99153" data-name="Path 99153" d="M1163.621,510.144c12.493,23.852,24.935,42.192,49.593,59.328,0,0-16.068,111.154-89.9,102.316s-33.532-149.76-33.532-149.76,38.286-3.526,66.652-15.872C1158.763,505.175,1161.447,511.373,1163.621,510.144Z" transform="translate(-1071.634 -506.05)" fill="#676a83"/>
        <path id="Path_99154" data-name="Path 99154" d="M1159.884,506.123c12.5,23.85,24.934,42.19,49.6,59.326,0,0-16.07,111.156-89.9,102.316S1086.054,518,1086.054,518,1131.357,522.476,1159.884,506.123Z" transform="translate(-1075.077 -505.983)" fill="#798099"/>
        <path id="Path_99155" data-name="Path 99155" d="M1128.707,512.455a163.545,163.545,0,0,1-22.149,5.271c-6.741,25.9-8.95,53.169-10.214,79.686a416.941,416.941,0,0,0,.86,55.553c1.118.3,2.268.575,3.438.8a48.762,48.762,0,0,0,23.438-1.039C1115.182,606.26,1118.354,558.541,1128.707,512.455Z" transform="translate(-1055.935 -500.133)" fill="#a8adc6"/>
        <path id="Path_99156" data-name="Path 99156" d="M1120.205,515.177c-6.243,1.093-12.3,1.918-17.445,2.511q-1.377,3.705-2.82,7.361c-11.572,29.121-16.818,59.824-18.915,91.362,4.186,16.337,13.069,29.483,29.827,34.006a416.978,416.978,0,0,1-.86-55.551C1111.246,568.349,1113.464,541.074,1120.205,515.177Z" transform="translate(-1069.583 -497.618)" fill="#bcc2d8"/>
        <path id="Path_99157" data-name="Path 99157" d="M1104.276,516.478c-8.6,1-14.556,1.375-14.556,1.375s-17.265,57.95-7.172,97.354c2.09-31.538,7.336-62.24,18.917-91.362Q1102.9,520.185,1104.276,516.478Z" transform="translate(-1071.1 -496.416)" fill="#a8adc6"/>
        <path id="Path_99158" data-name="Path 99158" d="M1134.49,526.232c-3.123-4.954-6.02-10.1-8.813-15.435a67.65,67.65,0,0,1-8.065,3.157c-10.317,46.119-13.525,93.838-4.592,140.268,9.767-2.967,18.005-9.019,24.935-16.663C1129.632,600.914,1129,563.185,1134.49,526.232Z" transform="translate(-1044.841 -501.665)" fill="#bcc2d8"/>
        <path id="Path_99159" data-name="Path 99159" d="M1123.387,518.82c-5.487,36.971-4.857,74.682,3.438,111.327,24.333-26.913,32.192-73.454,32.192-73.454C1143.2,545.706,1132.346,533.041,1123.387,518.82Z" transform="translate(-1033.738 -494.253)" fill="#a8adc6"/>
      </g>
      <g id="Group_19458" data-name="Group 19458" transform="translate(20.07 30.518)">
        <path id="Path_99173" data-name="Path 99173" d="M573.8,317.214a5.767,5.767,0,0,0-2.79,10.814l-2.134,7.245-8.817-2.862-1.09,4.176-15.145-5.653,2.119-11.6,3.965.224,3.732-14.914c.08,0,.159.012.24.012a5.775,5.775,0,1,0-2.82-.74L548.151,316.9h-3.533L541.7,330.141l-13.114-4.894c.878-3.483,2.91-14.579,2.91-14.579l-7.173-3.749,3.438-13.875a5.778,5.778,0,1,0-3.623-.822l-2.381,15.137s6.279,3.533,6.575,4.189c.221.491-.841,8.888-1.39,13.085l-4.752-1.773s1.024-9.257-6.07-12.977c-7.664-4.015-15.14-.829-17.591,6.258-2.365,6.849-1.009,17.627,6.409,19.6a18.768,18.768,0,0,0,5.108.7l-3.176,7.492,2.689,2.768-2.5,6.73a5.747,5.747,0,0,0-4.391,1.6l-.027.027a5.767,5.767,0,1,0,8.183.115,5.841,5.841,0,0,0-.756-.651l2.1-7.712-3.15-3.028s2.13-4.417,3.52-7.618c4.2-.918,6.479-3.935,7.856-6.714l8.2,3.272-10.143,26.388,3.194,2.422-2.37,6.058a5.765,5.765,0,1,0,2.833.719l2.716-8.133-3.179-3.05,8.8-23.667,5.711,2.277-5.623,9.6,7.836,4.326,1.946-11.535,8.911,3.533-5.926,14.4,4.395,1.758-1.425,7.527,9.751,3.187a5.748,5.748,0,1,0,.922-1.607l-7.8-2.46.721-5.782,4.253,1.7,2.588-16.711,5.717,2.884,1.99-7.93-3.388-1.265.879-3.1L570.86,337l2.941-8.11-.386-.156c.128.009.256.019.386.019a5.767,5.767,0,1,0,0-11.535Zm-19.919-21.657a3.345,3.345,0,0,1,.015,6.69h-.015a3.345,3.345,0,1,1,0-6.69ZM527.15,283.986a3.345,3.345,0,1,1-3.345,3.345A3.345,3.345,0,0,1,527.15,283.986ZM509.006,361.6a3.345,3.345,0,0,1-4.73-.063h0a3.337,3.337,0,0,1,.027-4.72l.009-.009h.029a3.345,3.345,0,1,1,4.667,4.794Zm1.973-31.18c-3.691.375-7.058-2.97-7.512-7.476s2.163-8.464,5.847-8.839,7.051,2.97,7.512,7.476S514.664,330.046,510.98,330.421Zm11.679,42.946a3.338,3.338,0,0,1-3.331,3.345h-.007a3.345,3.345,0,1,1,3.338-3.352Zm38.757-6.128a3.356,3.356,0,0,1,.022,6.712h-.022v-.022a3.345,3.345,0,1,1,0-6.69Zm12.4-40.877H573.8v-.014a2.365,2.365,0,1,1,.015.014Z" transform="translate(-497.468 -281.542)" fill="#2c2d43"/>
      </g>
    </g>
    <g id="Group_19460" data-name="Group 19460" transform="translate(256.621 2415.427)">
      <path id="Path_265" data-name="Path 265" d="M529.1,262.957c-9.969,19.033-19.9,33.668-39.575,47.342,0,0,12.823,88.7,71.74,81.648s26.758-119.507,26.758-119.507-30.553-2.813-53.187-12.666C532.975,258.991,530.834,263.938,529.1,262.957Z" transform="translate(-489.523 -259.689)" fill="#c69700"/>
      <path id="Path_266" data-name="Path 266" d="M520.765,259.852c-9.976,19.033-19.9,33.668-39.582,47.342,0,0,12.823,88.7,71.74,81.648s26.758-119.507,26.758-119.507S543.53,272.9,520.765,259.852Z" transform="translate(-475.461 -259.74)" fill="#ffcb03"/>
      <path id="Path_267" data-name="Path 267" d="M527.545,274.022a130.482,130.482,0,0,0,17.674,4.206c5.379,20.666,7.142,42.429,8.151,63.589a332.841,332.841,0,0,1-.686,44.33c-.892.24-1.811.46-2.745.638a38.913,38.913,0,0,1-18.7-.83C538.338,348.877,535.806,310.8,527.545,274.022Z" transform="translate(-472.635 -264.188)" fill="#ffdd7d"/>
      <path id="Path_268" data-name="Path 268" d="M494.49,280.112c4.981.871,9.818,1.53,13.921,2q1.1,2.958,2.25,5.873c9.235,23.239,13.42,47.74,15.095,72.907-3.341,13.036-10.429,23.527-23.8,27.136a332.842,332.842,0,0,0,.686-44.33C501.639,322.541,499.869,300.778,494.49,280.112Z" transform="translate(-421.906 -266.1)" fill="#ffe6a9"/>
      <path id="Path_269" data-name="Path 269" d="M490.817,283.022c6.861.8,11.616,1.1,11.616,1.1s13.777,46.244,5.722,77.689c-1.667-25.167-5.853-49.668-15.094-72.906Q491.914,285.979,490.817,283.022Z" transform="translate(-404.312 -267.013)" fill="#ffdd7d"/>
      <path id="Path_270" data-name="Path 270" d="M557.18,282.628c2.491-3.952,4.8-8.062,7.033-12.316a54.051,54.051,0,0,0,6.436,2.518c8.233,36.8,10.793,74.883,3.664,111.933-7.794-2.367-14.367-7.2-19.9-13.3C561.057,342.224,561.558,312.117,557.18,282.628Z" transform="translate(-515.739 -263.024)" fill="#ffe6a9"/>
      <path id="Path_271" data-name="Path 271" d="M609.74,288.262c4.377,29.5,3.877,59.6-2.745,88.838-19.417-21.475-25.688-58.615-25.688-58.615A100.775,100.775,0,0,0,609.74,288.262Z" transform="translate(-568.298 -268.658)" fill="#ffdd7d"/>
      <path id="Path_272" data-name="Path 272" d="M61.442,28.712a4.642,4.642,0,0,0-2.246,8.7l-1.718,5.832-7.1-2.3L49.5,44.306l-12.19-4.55,1.706-9.337,3.192.18,3-12c.064,0,.128.01.193.01a4.648,4.648,0,1,0-2.27-.6L40.8,28.463H37.952L35.6,39.117l-10.556-3.94c.707-2.8,2.343-11.734,2.343-11.734l-5.774-3.017L24.384,9.258A4.651,4.651,0,1,0,21.468,8.6L19.551,20.78s5.054,2.843,5.292,3.371c.178.4-.677,7.154-1.119,10.532L19.9,33.256s.824-7.451-4.886-10.445C8.845,19.579,2.827,22.144.854,27.848c-1.9,5.513-.812,14.188,5.159,15.778a15.107,15.107,0,0,0,4.112.562l-2.557,6.03,2.164,2.228L7.719,57.863A4.625,4.625,0,0,0,4.184,59.15l-.022.021a4.642,4.642,0,1,0,6.586.093,4.693,4.693,0,0,0-.608-.524l1.693-6.207L9.3,50.1s1.714-3.555,2.834-6.132a9.278,9.278,0,0,0,6.323-5.4l6.6,2.633-8.165,21.24,2.571,1.95-1.908,4.876a4.641,4.641,0,1,0,2.281.579l2.186-6.546-2.559-2.455,7.084-19.05,4.6,1.833-4.526,7.724,6.308,3.482,1.567-9.285,7.172,2.843L36.9,59.972l3.537,1.415-1.147,6.059,7.848,2.565a4.626,4.626,0,1,0,.742-1.293L41.6,66.738l.58-4.654L45.6,63.454,47.683,50l4.6,2.321,1.6-6.383L51.16,44.923l.707-2.5,7.207,2.211,2.367-6.528-.31-.126c.1.007.206.016.31.016a4.642,4.642,0,1,0,0-9.285ZM45.408,11.281a2.693,2.693,0,0,1,.012,5.385h-.012a2.693,2.693,0,0,1,0-5.385ZM23.892,1.967A2.693,2.693,0,1,1,21.2,4.66,2.693,2.693,0,0,1,23.892,1.967ZM9.288,64.44a2.692,2.692,0,0,1-3.807-.051h0a2.686,2.686,0,0,1,.022-3.8l.007-.008h.023A2.693,2.693,0,0,1,9.288,64.44Zm1.588-25.1c-2.971.3-5.681-2.391-6.047-6.018s1.741-6.813,4.706-7.114,5.675,2.391,6.047,6.018S13.841,39.041,10.876,39.343Zm9.4,34.567A2.686,2.686,0,0,1,17.6,76.6H17.59a2.693,2.693,0,1,1,2.687-2.7Zm31.2-4.932a2.7,2.7,0,0,1,.017,5.4h-.017v-.017a2.693,2.693,0,0,1,0-5.385Zm9.981-32.9h-.012v-.012a1.9,1.9,0,1,1,.012.012Z" transform="translate(13.382 50.434) rotate(-34)" fill="#4c5063"/>
    </g>
  </g>
</svg>
