<svg xmlns="http://www.w3.org/2000/svg" width="223" height="223" viewBox="0 0 223 223" fill="none">
<g clip-path="url(#clip0_1461_7348)">
<circle cx="111.812" cy="111.812" r="83.8121" fill="#007cff"/>
<mask id="mask0_1461_7348" style="mask-type:alpha" maskUnits="userSpaceOnUse" x="28" y="28" width="168" height="168" fill="#000000">
<circle cx="111.812" cy="111.812" r="83.8121" fill="#007cff"/>
</mask>
<g mask="url(#mask0_1461_7348)">
<rect x="43" y="80" width="137.226" height="286" rx="22.7577" fill="#F9F9F9"/>
<mask id="mask1_1461_7348" style="mask-type:alpha" maskUnits="userSpaceOnUse" x="48" y="85" width="128" height="277" fill="#000000">
<rect x="48.0952" y="85.2051" width="127.375" height="275.81" rx="19.361" fill="#D9D9D9"/>
</mask>
<g mask="url(#mask1_1461_7348)">
<rect x="48.0952" y="85.2051" width="127.375" height="275.81" rx="19.361" fill="#16191C"/>
<circle cx="111.835" cy="184.638" r="63.3267" stroke="#007cff" stroke-width="0.942947" fill="#000000"/>
<circle cx="111.835" cy="184.638" r="63.2982" stroke="#007cff" fill="#000000"/>
<circle cx="111.835" cy="184.638" r="82.1379" stroke="#007cff" fill="#000000"/>
<mask id="mask2_1461_7348" style="mask-type:alpha" maskUnits="userSpaceOnUse" x="62" y="135" width="100" height="99" fill="#000000">
<circle cx="111.835" cy="184.638" r="49.2402" fill="#007cff"/>
</mask>
<g mask="url(#mask2_1461_7348)">
<circle cx="111.835" cy="184.638" r="49.2402" fill="#007cff"/>
<path d="M130.247 146.958C130.247 146.097 132.955 144.174 135.818 142.405C138.504 140.744 141.972 141.439 143.98 143.877L161.223 164.815C163.053 167.037 162.799 170.308 160.647 172.221L158.559 173.713C157.988 174.12 157.65 174.777 157.65 175.478C157.65 176.357 157.12 177.149 156.307 177.484L151.025 179.658C150.593 179.836 150.131 179.928 149.664 179.928H148.873C147.335 179.928 146.089 181.174 146.089 182.711C146.089 184.248 144.843 185.494 143.306 185.494H142.33C141.188 185.494 140.108 184.975 139.394 184.083L137.431 181.629C137.209 181.352 137.018 181.052 136.859 180.735C135.761 178.538 133.238 177.454 130.888 178.169L127.442 179.218C125.936 179.676 124.316 179.581 122.874 178.95L122.213 178.661C119.81 177.61 118.258 175.236 118.258 172.614V171.937C118.258 169.949 119.154 168.067 120.696 166.814L124.673 163.583C124.963 163.347 125.273 163.137 125.599 162.953L128.911 161.09C130.794 160.031 131.96 158.038 131.96 155.877C131.96 155.357 131.891 154.84 131.761 154.337C131.16 152.01 130.247 148.183 130.247 146.958Z" fill="#F9F9F9"/>
<path d="M86.8839 149.388L84.7621 147.738C82.5194 145.994 79.4122 145.88 77.0483 147.456L73.0158 150.145C72.3541 150.586 71.7775 151.143 71.3139 151.789L59.1226 168.783C58.318 169.905 57.8853 171.25 57.8853 172.631V185.744C57.8853 189.39 60.8405 192.345 64.4859 192.345H71.3945C73.4094 192.345 75.314 191.424 76.5661 189.846L80.9804 184.28C82.6855 182.13 85.9913 182.266 87.5134 184.55C88.2634 185.675 89.526 186.35 90.8781 186.35H92.3021C93.0446 186.35 93.7818 186.225 94.4826 185.98L97.5672 184.9C100.215 183.974 101.987 181.475 101.987 178.67V175.218C102.13 172.506 95.4791 167.682 95.1365 163.229C94.7084 157.663 92.9957 159.375 91.283 157.663L90.1019 156.482C89.213 155.593 88.7139 154.387 88.7139 153.13C88.7139 151.667 88.0386 150.287 86.8839 149.388Z" fill="#F9F9F9"/>
</g>
</g>
<path d="M77.3066 80H145.856V86.5102C145.856 92.0381 141.374 96.5193 135.846 96.5193H87.3158C81.7879 96.5193 77.3066 92.0381 77.3066 86.5102V80Z" fill="#F9F9F9"/>
</g>
<path fill-rule="evenodd" clip-rule="evenodd" d="M110.372 165.306C127.651 138.977 161.55 106.541 161.55 70.2716C161.55 42.6222 138.927 20 111.278 20C83.6286 20 61.0063 42.6222 61.0063 70.2716C60.4919 105.252 91.4474 138.977 110.372 165.306Z" fill="#16191C"/>
<path d="M159.515 86C151.949 115.939 125.113 142.844 110.372 165.306C94.3033 142.95 69.5604 115.261 62.7739 86" stroke="#007cff" stroke-linecap="round" fill="#000000"/>
<path d="M115.528 99.1648C115.244 99.479 114.84 99.6583 114.416 99.6583H105.488C104.708 99.6583 104.058 99.0603 103.993 98.2828C103.886 97.0031 103.886 95.9347 103.886 94.6341V94.6073C103.886 91.0738 104.53 87.8833 106.021 85.013C107.512 82.1415 109.804 79.6821 112.963 77.5401C112.964 77.5395 112.965 77.539 112.966 77.5385L117.426 74.497L117.431 74.4939C120.477 72.433 122.149 69.2411 122.149 65.7936C122.149 63.1228 121.267 60.6159 119.56 58.7902C117.872 56.985 115.268 55.7275 111.575 55.7275C107.573 55.7275 104.833 57.2039 103.07 59.2917C101.274 61.4178 100.393 64.2997 100.393 67.214C100.393 68.8359 100.687 70.7773 101.013 71.6727C101.191 72.1634 101.102 72.7115 100.777 73.1198C100.451 73.5282 99.9373 73.7381 99.4192 73.674L89.5779 72.4565C88.9805 72.3826 88.4851 71.9587 88.3198 71.3799C87.8679 69.7983 87.6533 68.0321 87.6533 66.0979C87.6533 61.09 89.4709 55.5225 93.3934 51.1915C97.3458 46.8273 103.363 43.7993 111.575 43.7993C126.617 43.7993 135.294 54.5246 135.294 65.6921C135.294 74.4714 130.425 80.46 124.284 84.5895L115.528 99.1648ZM115.528 99.1648C115.813 98.8505 115.951 98.4307 115.909 98.009C115.815 97.0686 115.815 96.7111 115.815 96.2492V96.2306C115.815 92.5768 117.025 89.4905 119.62 87.7328C119.62 87.7328 119.62 87.7327 119.62 87.7326L124.283 84.5903L115.528 99.1648ZM101.756 116.299C101.756 120.78 105.37 124.394 109.85 124.394C114.301 124.394 118.047 120.81 118.047 116.299C118.047 111.818 114.331 108.103 109.85 108.103C105.34 108.103 101.756 111.848 101.756 116.299Z" fill="#F9F9F9" stroke="#F9F9F9" stroke-width="3" stroke-linejoin="round"/>
</g>
<defs fill="#000000">
<clipPath id="clip0_1461_7348" fill="#000000">
<rect width="168" height="176" fill="white" transform="translate(28 20)"/>
</clipPath>
</defs>
</svg>