<svg xmlns="http://www.w3.org/2000/svg" width="200" height="146.036" viewBox="0 0 200 146.036">
  <g id="cyberghost-vpn-digital-security-1" transform="translate(-190.568 -1187.527)">
    <g id="Group_352" data-name="Group 352" transform="translate(202.484 1223.645)">
      <g id="Group_351" data-name="Group 351">
        <g id="Group_350" data-name="Group 350">
          <path id="Path_1151" data-name="Path 1151" d="M204.207,1253.581a30.79,30.79,0,1,1,61.5-3.048c.841,16.979,9.554,47.331-7.439,48.174C182.5,1302.462,205.049,1270.561,204.207,1253.581Z" transform="translate(-201.699 -1221.265)" fill="#263238"/>
          <path id="Path_1152" data-name="Path 1152" d="M245.7,1269.781c6.3-.313,10.883-7.713,10.6-16.543-.285-8.813-3.608-18.657-10.667-19.468-8.7-1.155-12.541,11.769-12.1,20.6S239.422,1270.092,245.7,1269.781Z" transform="translate(-199.456 -1220.388)" fill="#fff"/>
          <path id="Path_1153" data-name="Path 1153" d="M220.6,1265.576c4.969-.246,8.724-6.1,8.378-13.086s-3.741-15.82-8.711-15.574-9.65,9.483-9.3,16.467S215.62,1265.823,220.6,1265.576Z" transform="translate(-201.047 -1220.162)" fill="#fff"/>
        </g>
      </g>
      <path id="Path_1154" data-name="Path 1154" d="M207.287,1246.151c1.5-.226,23.655.657,23.655.657l26.761-10.6-5.613-7.286-41.163,6.643Z" transform="translate(-201.305 -1220.726)" fill="#263238"/>
      <path id="Path_1155" data-name="Path 1155" d="M208.627,1257.417c.829.309,22.964-.859,22.964-.859l4.869,17.7,22.054,1.159-40.937,8.142-8.983-25.212" transform="translate(-201.212 -1218.776)" fill="#263238"/>
    </g>
    <path id="Path_1156" data-name="Path 1156" d="M262.344,1267.528l17.653,1.08c-.238-5.339,2.9-9.083,5.7-13,3.261-2.312,4.751-3.592,8.536-2.6,0,0,10.63,6.152,5.264,8.361s-7.28-1.575-7.28-1.575l-1.54,1.9c4.419-.719,5.927,2.277,10.039,4.6l-1.467,14.447c-3.2,2.886-9.515,2.425-16.047-.259l-1.969-4.9-20.823-2.214Z" transform="translate(4.926 4.594)" fill="#263238"/>
    <g id="Group_354" data-name="Group 354" transform="translate(268.202 1187.527)">
      <path id="Path_1157" data-name="Path 1157" d="M300.606,1240.127l58.112,41.622,23.915-28.589L311.327,1209.8Z" transform="translate(-260.442 -1185.956)" fill="#989898"/>
      <path id="Path_1158" data-name="Path 1158" d="M302.735,1243.715c-.87,1.1-14.663,25.592-14.663,25.592l6.926,1.056,17.731-23.851Z" transform="translate(-261.326 -1183.564)" fill="#545672"/>
      <path id="Path_1159" data-name="Path 1159" d="M295.476,1274.614l7.914,11.35-15.285,12.229-9.343-6.136,15.549-5.724-3.29-10.965Z" transform="translate(-261.983 -1181.385)" fill="#545672"/>
      <path id="Path_1160" data-name="Path 1160" d="M372.946,1249.183c-.653.771-22.7,26.851-22.7,26.851l-24.672-10.164s-38.97-40.179-34.865-46.53c5.587-8.642,54.7,15.852,54.506,16.12C344.885,1235.924,372.946,1249.183,372.946,1249.183Z" transform="translate(-261.161 -1185.414)" fill="#686868"/>
      <path id="Path_1161" data-name="Path 1161" d="M366.012,1194.742a3.96,3.96,0,0,0-4.051,3.6l-5,1.1-2.475-6.014s-5.767,5.455-6.134,6.766-4.271-12.67-4.271-12.67-6.161,7.756-6.189,8.746-13.229.623-13.229.623-.056,25.761.238,27.09l2.613,1.064.046-25.431,11.561-.009,3.641-7.5,6.168,11.079,4.795-6.143,3.483,5.382,5.3-1.68a3.961,3.961,0,1,0,3.5-6Z" transform="translate(-258.745 -1187.527)" fill="#989898"/>
      <path id="Path_1162" data-name="Path 1162" d="M281.459,1237.482l45.46,33.164,9.11-12.024-5.809-4.278-5.165-.739-4.589-7.087,5.164,5.693,4-.519,8.4,3.981,10.439-14.064L279.529,1198.7Z" transform="translate(-261.928 -1186.739)" fill="#989898"/>
      <path id="Path_1163" data-name="Path 1163" d="M279.529,1198.7l37.211,12.364,67.554,42.825-36.071-12.445Z" transform="translate(-261.928 -1186.739)" fill="#c8c8c8"/>
      <g id="Group_353" data-name="Group 353" transform="translate(74.963 56.715)">
        <ellipse id="Ellipse_138" data-name="Ellipse 138" cx="12.627" cy="10.073" rx="12.627" ry="10.073" transform="translate(0 19.666) rotate(-51.146)" fill="#263238"/>
        <ellipse id="Ellipse_139" data-name="Ellipse 139" cx="12.627" cy="10.073" rx="12.627" ry="10.073" transform="translate(4.887 22.993) rotate(-51.146)" fill="#263238"/>
        <path id="Path_1164" data-name="Path 1164" d="M360.582,1252.351l-1.565,3.99,3.087.337A6.056,6.056,0,0,0,360.582,1252.351Z" transform="translate(-331.285 -1239.67)" fill="#c2e0e9"/>
        <path id="Path_1165" data-name="Path 1165" d="M357.437,1261.1l1.023.257.2-.428-.2.428.383.1-.383-.1-2.827,6.112a15.009,15.009,0,0,0,3.588-3.241,15.5,15.5,0,0,0,1.572-2.376l-3.121-4.163Z" transform="translate(-331.524 -1239.294)" fill="#c2e0e9"/>
        <path id="Path_1166" data-name="Path 1166" d="M353.082,1263.1l-2.9,5.629a8.574,8.574,0,0,0,4.532-.925Z" transform="translate(-331.909 -1238.912)" fill="#c2e0e9"/>
        <path id="Path_1167" data-name="Path 1167" d="M360.566,1252.173c-.046-.042-.087-.088-.136-.127a5.2,5.2,0,0,0-3.287-1.088l-2.062,5.023Z" transform="translate(-331.563 -1239.768)" fill="#c2e0e9"/>
        <path id="Path_1168" data-name="Path 1168" d="M351.01,1257.552l-1.3-2.793c-.254.274-.5.558-.743.856-3.669,4.554-4.192,10.22-1.169,12.655a3.988,3.988,0,0,0,.332.226l2.595-6.99h0l2.04-1.3-6.159-.128Z" transform="translate(-332.215 -1239.5)" fill="#c2e0e9"/>
      </g>
      <path id="Path_1169" data-name="Path 1169" d="M288.8,1292.669s-7.891,2.019-6.881,5.964,5.81,2.4,6.881,4.109,2.026,7.611-3.037,8.59-4.4-2.641-4.4-2.641,7.347-.75,4.9-3.429c-1.741-1.9-6.349-.554-7.335-5.338s.62-6.393,7.136-9.29S288.8,1292.669,288.8,1292.669Z" transform="translate(-261.99 -1180.32)" fill="#263238"/>
      <path id="Path_1170" data-name="Path 1170" d="M286.362,1293.572s-8.133-.441-8.353,3.625,1.044,4.643,1.695,6.552c2.012,5.908-6.516,6.251-7.172,5.27,0,0-3.588-3.2-1.623-3.154,0,0,7.483,1.567,5.951-1.724a13.1,13.1,0,0,1-1.356-7.829c.325-3.218,1.77-4.7,8.854-5.5S286.362,1293.572,286.362,1293.572Z" transform="translate(-262.578 -1180.251)" fill="#263238"/>
      <path id="Path_1171" data-name="Path 1171" d="M272.329,1306.932s-3.153-2.848-4.31.015-2.108,3.174-4.029,2.043-.173,1.41-.173,1.41,3.539,1.041,4.2-.826.754-2.874,1.691-2.714,3.821.646,3.821.646Z" transform="translate(-263.088 -1179.195)" fill="#263238"/>
      <path id="Path_1172" data-name="Path 1172" d="M282.589,1308.336s-1.83.42-1.736,1.9.258,3.9-1.037,4.474a5.95,5.95,0,0,1-3.39-.094l.081.9c.18.551,4.675.807,4.778-1.432a8.614,8.614,0,0,1,.43-3.355,9.688,9.688,0,0,1,1.872-1.968Z" transform="translate(-262.147 -1179.007)" fill="#263238"/>
      <path id="Path_1173" data-name="Path 1173" d="M277.394,1309.988l.754-.4s-.189,3.017.408,2.5.213-1.956.859-2.309a16.552,16.552,0,0,1,2.885-.768l-.49.464s-1.644.008-1.928.688,0,1.962-.809,2.416-1.439.278-1.687-.311A6.668,6.668,0,0,1,277.394,1309.988Z" transform="translate(-262.087 -1178.959)" fill="#263238"/>
      <path id="Path_1174" data-name="Path 1174" d="M264.854,1301.4c.157.057,1.8-.057,1.674.788s-1.084.871-.63,1.732,1.039.718,2,.48.094.427.286,1.174,1.573.627,1.573.627l-.435.359a3.926,3.926,0,0,1-1.691-.153c-.416-.276.029-1.06-.128-1.116s-1.171.18-1.845-.369a2.108,2.108,0,0,1-.247-2.552c.491-.516-1.421-.41-1.421-.41Z" transform="translate(-263.024 -1179.496)" fill="#263238"/>
      <path id="Path_1175" data-name="Path 1175" d="M350.234,1254.262a14.833,14.833,0,0,1,3.242-2c1.594-.64,2.53-1.025,2.53-1.025l-1.982,3.508Z" transform="translate(-256.942 -1183.034)" fill="#c2e0e9"/>
      <path id="Path_1176" data-name="Path 1176" d="M296.774,1209.5l-1.979,2.43,2.236,2.069-2.276,2.8,4.354,7.247,7.384,6.971-8.011-5.846-.41,3.917-.972-5.232-3.049-5.861-1.38-1.827,2.255-2.04-2.615-2.175,2.4-3.66Z" transform="translate(-261.027 -1186.062)" fill="#868686"/>
    </g>
    <path id="Path_1177" data-name="Path 1177" d="M300.968,1261.4s-12.789-1.826-14.667,3.2,6.248,6.193,13.093,5.313S300.968,1261.4,300.968,1261.4Z" transform="translate(6.732 5.188)" fill="#263238"/>
    <path id="Path_1178" data-name="Path 1178" d="M301.667,1268.251s-11.971-4.856-15.007-.427,4.571,7.515,11.426,8.313S301.667,1268.251,301.667,1268.251Z" transform="translate(6.729 5.531)" fill="#263238"/>
    <path id="Path_1179" data-name="Path 1179" d="M301.022,1274.617s-16.071-5.82-19.5-2.11,6.784,7.41,15.76,8.925S301.022,1274.617,301.022,1274.617Z" transform="translate(6.367 5.906)" fill="#263238"/>
    <path id="Path_1180" data-name="Path 1180" d="M190.568,1255.777c3.157.565,93.326-28.168,93.326-28.168l-27.505-6.729-21.3-26.624-11.342,11.96-14.168-4.148-3.626,33.505Z" transform="translate(0 0.474)" fill="#263238"/>
    <ellipse id="Ellipse_140" data-name="Ellipse 140" cx="29.25" cy="7.661" rx="29.25" ry="7.661" transform="translate(209.763 1318.24)" fill="#d8deec"/>
  </g>
</svg>
