<svg xmlns="http://www.w3.org/2000/svg" width="223" height="223" viewBox="0 0 223 223" fill="none">
<g clip-path="url(#clip0_1461_7393)">
<circle cx="111.812" cy="111.812" r="83.8121" fill="#007cff"/>
<path d="M123.03 110.23C123.657 110.676 123.566 111.634 122.865 111.954L105.5 119.89C104.8 120.21 104.016 119.652 104.089 118.885L105.899 99.8783C105.972 99.112 106.847 98.712 107.474 99.1584L123.03 110.23Z" fill="#007cff"/>
<path d="M92.5596 101.628C97.6754 98.3158 91.3613 89.6314 93.9767 84.8926C95.8765 81.4501 92.4514 79.0724 89.9752 78.0833L88.6164 78.2546L63.862 81.9849C61.1772 89.5565 67.5195 104.93 71.9476 105.689C76.3758 106.447 78.6392 109.374 81.3554 113.133C84.0717 116.893 87.95 114.2 88.4478 111.081C88.9456 107.963 87.4439 104.94 92.5596 101.628Z" fill="#16191C"/>
<path d="M80.727 125.25C78.3149 123.171 75.0355 118.575 81.214 116.826C88.9371 114.64 101.476 107.783 106.036 108.632C110.595 109.482 118.264 110.274 114.468 116.669C111.906 120.987 102.413 124.724 95.9019 126.694C102.69 124.939 112.469 123.214 114.146 126.08C116.119 129.452 114.24 133.069 113.054 134.456L91.8604 133.015L80.727 125.25Z" fill="#16191C"/>
<path d="M99.9622 30.3298C103.04 41.9668 98.9306 53.8256 90.2015 64.4006C87.8316 67.4975 94.9956 78.2279 90.9268 80.9443C78.3154 88.3322 70.5776 86.1711 67.5541 85.8161C62.8512 85.264 63.2605 73.2026 59.5457 71.0389C53.4615 67.495 39.6247 61.7588 35.8444 47.4405C31.1191 29.5427 38.6974 10.1333 59.7149 4.36162C82.9128 -2.00879 96.645 17.7871 99.9622 30.3298Z" fill="#ffc200"/>
<path d="M77.1496 89.5229L54.048 37.4541C56.3821 39.1982 62.0059 41.0575 65.8293 34.5421C67.9264 37.9923 73.3521 42.3782 78.2776 32.3199L83.0279 87.3527" stroke="#16191C" stroke-width="0.974695" fill="#000000"/>
<path d="M191.794 136.931C183.518 163.311 162.551 184.073 136.047 192.066C126.564 189.474 107.645 185.303 98.4803 183.957C90.2093 182.742 88.6749 181.174 86.0256 178.469C85.2052 177.631 84.2779 176.684 83.0106 175.604C78.7227 171.951 75.924 166.72 75.0606 164.561C74.2707 163.886 73.4489 162.36 72.4085 160.428C71.0713 157.946 69.3732 154.793 66.9177 151.914C62.5517 146.794 62.6586 136.822 63.4961 132.16C62.5879 129.332 60.5984 124.475 58.2467 118.734C51.2454 101.642 41.034 76.7139 46.5899 74.1616C58.1474 71.2022 64.0328 82.3612 72.4784 98.3742C75.3596 103.837 78.5387 109.865 82.3425 116.089C91.3069 122.792 112.175 129.116 120.69 130.504C120.547 130.318 120.4 130.125 120.245 129.923C117.752 126.663 113.531 121.143 101.264 110.444C84.9806 96.243 90.8498 76.9911 98.3917 80.1476C101.33 81.3775 105.184 84.3438 109.957 88.0168C117.433 93.7707 127.162 101.259 139.155 106.523C152.582 112.416 162.665 123.49 168.696 130.113C169.725 131.244 170.637 132.245 171.427 133.068C178.075 134.915 184.901 136.17 191.794 136.931Z" fill="#F9F9F9"/>
<path d="M76.3294 148.401C72.9897 146.248 65.7525 140.23 63.5208 133.38M77.2425 159.127C76.2424 159.454 73.2361 158.979 69.211 154.471M83.4676 171.19C81.5176 170.446 77.1599 168.131 75.3288 164.82M48.7645 90.0162C51.8055 90.055 56.8917 87.8008 52.9087 78.4738M96.4442 87.5965C99.3495 92.15 106.42 99.5064 111.457 92.5037" stroke="#16191C" stroke-width="0.974695" stroke-linecap="round" fill="#000000"/>
<path fill-rule="evenodd" clip-rule="evenodd" d="M136.047 192.066C162.551 184.073 183.518 163.311 191.794 136.931C190.836 136.825 189.878 136.71 188.923 136.585C175.312 141.097 166.06 150.192 156.844 159.251C142.616 173.237 128.474 187.138 98.5142 183.962C107.691 185.314 126.575 189.477 136.047 192.066Z" fill="#16191C"/>
<path d="M6.82753 44.7596L30.2391 43.962M33.2903 51.6947L6.2987 67.4621M23.297 76.1772L37.5385 58.2486" stroke="#16191C" stroke-linecap="round" fill="#000000"/>
<path d="M126.619 46.8944L105.418 36.891M104.773 30.429L135.73 26.0936M123.315 11.5759L103.332 22.7528" stroke="#16191C" stroke-linecap="round" fill="#000000"/>
</g>
<defs fill="#000000">
<clipPath id="clip0_1461_7393" fill="#000000">
<rect width="223" height="223" fill="white"/>
</clipPath>
</defs>
</svg>