<svg xmlns="http://www.w3.org/2000/svg" xmlns:xlink="http://www.w3.org/1999/xlink" version="1.1" id="Layer_1" x="0px" y="0px" width="426px" height="268px" viewBox="0 0 426 268" style="enable-background:new 0 0 426 268;" xml:space="preserve">
<style type="text/css">
	.st0{fill:#03a9f4;}
	.st1{fill:#262424;}
</style>
<g>
	<g id="XMLID_00000022532424502715113300000013371397982720817319_">
		<g>
			<rect x="129.3" y="155.3" width="9.4" height="6.6" fill="#000000"/>
			<rect x="147.2" y="155.3" width="9.4" height="6.6" fill="#000000"/>
			<rect x="165" y="155.3" width="9.4" height="6.6" fill="#000000"/>
			<path d="M212.3,239.7H110.7c-1.8,0-3.3-1.5-3.3-3.3V132.9c0-1.8,1.5-3.3,3.3-3.3h83.2l21.2-24c0.6-0.7,1.5-1.1,2.5-1.1h84.5     c1.8,0,3.3,1.5,3.3,3.3v37.9h-6.6v-34.6h-79.7l-21.2,24c-0.6,0.7-1.5,1.1-2.5,1.1H114V233h98.3V239.7z" fill="#000000"/>
			<path d="M137.5,121.9h-6.6V4.3c0-1.8,1.5-3.3,3.3-3.3h144.3c1.8,0,3.3,1.5,3.3,3.3v92.5h-6.6V7.6H137.5V121.9z" fill="#000000"/>
			<rect x="160.3" y="28.3" class="st0" width="92" height="6.6" fill="#000000"/>
			<rect x="160.3" y="53.1" class="st0" width="92" height="6.6" fill="#000000"/>
			<rect x="160.3" y="77.8" class="st0" width="92" height="6.6" fill="#000000"/>
		</g>
	</g>
	<g>
		<g>
			<path class="st0" d="M321.3,265.2h-32.9l-20.5-32.9l-20.3,32.9h-32.2l34.9-53.9l-32.9-51.4H249l19,32.6l18.3-32.6h32.5     l-33.4,53.7L321.3,265.2z" fill="#000000"/>
			<path class="st1" d="M326.7,268h-39.8l-19-30.4L249.1,268h-38.9l36.8-56.7l-34.6-54.2h38.3l17.4,29.7l16.7-29.7h39.2l-35,56.4     L326.7,268z M289.9,262.4h26l-33.9-48.8l31.7-51h-25.8L268,198.1l-20.7-35.4h-24.8l31.1,48.7l-33.1,51.1H246l21.9-35.4     L289.9,262.4z" fill="#000000"/>
		</g>
	</g>
</g>
</svg>