<svg xmlns="http://www.w3.org/2000/svg" width="223" height="223" viewBox="0 0 223 223" fill="none">
<circle cx="111.13" cy="112.13" r="85.1302" fill="#007cff"/>
<mask id="mask0_1461_7430" style="mask-type:alpha" maskUnits="userSpaceOnUse" x="26" y="14" width="185" height="184" fill="#000000">
<path d="M26 112.13C26 159.146 64.1141 197.26 111.13 197.26C156.173 197.26 193.046 162.278 196.061 118L211 94.5L196.26 14.5H30.5L26 112.13Z" fill="#007cff"/>
</mask>
<g mask="url(#mask0_1461_7430)">
<path d="M143.851 150.213C151.883 142.649 155.324 133.542 156.04 129.934L110.358 55.9939L81.3416 70.7335C80.6316 74.8244 79.8067 84.9877 82.1874 92.914C84.5682 100.84 62.8811 118.638 67.1734 132.928C43.861 157.267 8.67339 185.428 8.67339 185.428C12.4015 217.968 39.192 246.769 72.4331 248.642C93.6734 217.428 116.314 182.928 129.066 164.054C131.942 159.797 135.82 157.777 143.851 150.213Z" fill="#F9F9F9"/>
<path fill-rule="evenodd" clip-rule="evenodd" d="M138.149 155.319L142.5 139L88.5002 90.5005C88.8143 90.9868 89.156 91.512 89.521 92.073C95.1606 100.741 106.373 117.973 107.5 133C108.414 145.184 117.504 159.784 125.541 169.293C126.785 167.438 127.963 165.688 129.066 164.055C130.789 161.504 132.872 159.757 135.992 157.139C136.661 156.578 137.378 155.977 138.149 155.319ZM101.976 204.66C101.36 185.313 95.2051 179.956 87.7031 173.426C84.4419 170.588 80.9261 167.528 77.5002 163C70.8147 154.166 67.6638 145.218 65.0529 135.121C53.0007 147.454 38.3041 160.51 26.938 170.231C27.6622 171.256 28.3943 172.294 29.1334 173.341C45.615 196.69 65.608 225.014 80.3082 237.019C87.6831 226.089 95.0595 215.045 101.976 204.66Z" fill="#16191C"/>
<path d="M77.5121 26.0597C74.2794 28.8905 67.5707 36.2696 56 57.0005C44.3653 77.846 35.9991 86.0421 34.1543 86.0262C34.1026 86.0176 34.0512 86.009 33.9999 86.0006C34.0449 86.0171 34.0964 86.0257 34.1543 86.0262C52.9852 89.161 101.37 99.4336 111.276 105.618C123.692 113.37 129.427 152.965 163 167C177.5 155.5 182.436 148.5 188 132C190.867 123.5 199.049 106.406 201 105.617C182.744 103.2 141.987 95.078 132 80.9993C122.013 66.9205 95.0134 53.0459 77.5121 26.0597Z" fill="#16191C"/>
<path d="M98.8948 20.6884C95.0654 22.1865 83.7106 23.4826 71.9999 43.0004C61.6819 60.1972 50.2169 71.9792 48.7429 71.4685C48.72 71.4557 48.6971 71.4428 48.6743 71.43C48.694 71.4467 48.7169 71.4595 48.7429 71.4685C64.416 80.2681 85.1266 89.9968 91.6746 98.929C115.866 131.929 102.446 134.429 136.657 171.617C141.933 168.317 154.683 158.986 163.475 148.059C172.266 137.131 185.501 122.5 190.001 119C179.501 113.5 163.475 104 151.813 98.929C127.253 74.3633 106.221 42.2573 98.8948 20.6884Z" fill="#007cff"/>
<path fill-rule="evenodd" clip-rule="evenodd" d="M102.999 30.8649C102.429 29.6228 101.891 28.4013 101.386 27.2028C94.1381 30.0445 83.1057 37.3771 77.153 51.7338C72.5708 62.7853 64.0601 71.0641 57.1724 76.0793C57.7639 76.3979 58.3576 76.7173 58.9526 77.0373C59.6514 77.4132 60.352 77.7901 61.0531 78.1678C68.1058 72.7333 76.2623 64.3258 80.848 53.2659C86.3796 39.9246 96.6718 33.3004 102.999 30.8649ZM177.68 112.289C176.433 111.6 175.168 110.901 173.891 110.2C171.521 112.177 169.333 114.411 167.247 116.791C164.427 120.007 161.693 123.61 158.93 127.25L158.93 127.25C157.404 129.261 155.87 131.284 154.307 133.259C146.712 142.858 137.942 152.052 124.136 156.935C124.957 157.999 125.828 159.098 126.753 160.236C140.857 154.882 149.887 145.292 157.444 135.741C159.123 133.618 160.708 131.529 162.252 129.493L162.252 129.492C164.945 125.941 167.515 122.551 170.254 119.428C172.631 116.718 175.061 114.301 177.68 112.289Z" fill="#F9F9F9"/>
<path d="M122 82.0015C136.344 90.2285 138.095 106.844 129.5 112.001C122 116.501 112.237 115.125 106.5 108.501C95.2404 95.5011 104.992 72.7595 122 82.0015Z" fill="#F9F9F9"/>
<path d="M152.175 160.428C148.675 162.929 145.175 166.929 136.175 170.929L129.675 164.429M102.001 28L106.501 38.5" stroke="#16191C" stroke-linecap="round" stroke-linejoin="round" fill="#000000"/>
<path d="M153.692 59.1783C148.493 57.9147 143.968 61.6143 142.355 63.622C136.661 72.326 126.166 91.1245 124.358 94.9937C121.197 101.759 122.685 106.713 128.479 108.712C134.273 110.711 143.263 98.4555 145.606 95.8822C147.949 93.3089 159.758 77.2983 160.804 71.7908C161.85 66.2834 160.191 60.7577 153.692 59.1783Z" fill="#F9F9F9"/>
<path d="M170.372 75.9803C176.547 79.9418 172.915 93.9374 170.496 99.7184L163.314 97.9776C160.99 97.845 159.562 104.03 153.099 106.304C145.02 109.146 141.462 105.668 140.979 103.297C140.101 98.9906 154.12 82.7313 156.844 80.0436C159.568 77.3558 162.653 71.0284 170.372 75.9803Z" fill="#F9F9F9"/>
<path d="M132.249 47.9621C128.621 48.0548 124.298 51.4583 122.59 53.1484C118.57 54.9791 112.402 75.9425 111.413 79.5634C110.423 83.1843 107.186 90.3883 108.865 95.2851C110.543 100.182 114.469 101.495 119.099 100.312C123.729 99.1294 132.434 85.9209 135.423 80.6606C138.413 75.4003 144.852 61.6259 143.914 55.6758C142.758 48.3372 136.785 47.8463 132.249 47.9621Z" fill="#F9F9F9"/>
<path d="M122.226 46.402C120.719 42.0768 117.745 36.323 110.027 37.6023C108.396 37.8728 108.253 38.0668 106.673 38.9283L107.673 42.4286C106.575 45.6484 99.6825 64.0948 98.0001 74.0005C96.6864 77.9264 99.3721 84.4255 103.546 85.8724C107.719 87.3192 110.1 83.4882 112.805 79.3522C115.509 75.2163 120.213 67.3638 121.565 64.2573C122.917 61.1508 123.733 50.7271 122.226 46.402Z" fill="#F9F9F9"/>
<path d="M123.032 53.2262C122.912 56.5165 121.115 64.2715 119.454 67.5954C117.794 70.9192 113.087 79.1325 110.37 82.9953M143.063 63.2047C137.273 73.6682 125.237 95.1479 123.409 97.359M156.522 80.3503C152.35 85.827 143.733 97.1121 141.57 100.421M124.668 102.731C124.668 102.731 126.629 96.5329 129.277 94.2835C131.942 94.0443 136.711 96.5719 137.727 99.5291C138.124 100.685 136.816 103.005 134.994 105.463M118.722 97.3286C122.851 94.7202 124.902 87.7115 123.365 86.014C121.521 83.977 117.213 83.6967 115.205 84.2272C113.33 84.7225 111.357 88.1648 110.638 90.262" stroke="#16191C" stroke-width="0.933961" stroke-linecap="round" fill="#000000"/>
<path d="M79.0338 49.6535C73.9466 51.3892 57.1672 77.825 55.2646 86.7056C53.7357 93.8417 59.769 113.07 64.7941 135C68.1733 143.5 76.337 149.705 87.1685 149.852L106.164 148.276C109.402 145.226 104.582 121.975 96.1733 106.428C87.7646 90.8816 80.4538 88.5656 81.6733 86.4282C83.5233 83.1859 87.5795 76.0299 88.1502 73.0888C92.8124 72.9349 103.417 71.4945 108.538 66.9652C114.938 61.3035 112.497 54.5587 103.541 55.1715C94.5853 55.7842 84.1211 47.9177 79.0338 49.6535Z" fill="#F9F9F9"/>
<path d="M93.8171 55.5605C91.7219 58.2671 90.8961 61.6172 94.4733 62.5456C97.2621 63.2693 101.475 63.6464 104.92 63.5491M99 71.4997C103.167 70.6663 111 67.4122 111 60.9997C111 55.9991 107 54.9998 104 54.9998M82.5 49.4998C81.8333 49.1664 80.2 48.6998 79 49.4998M104 151C105.693 149.833 108.664 143.3 107 126.5" stroke="#16191C" stroke-width="0.933961" stroke-linecap="round" fill="#000000"/>
<path d="M132 108.499C121.6 111.299 121.393 102.697 122.59 98.0458C121.301 99.2314 120.104 100.055 119.099 100.312C114.469 101.495 110.543 100.181 108.864 95.2842C107.781 92.1227 108.746 87.9994 109.832 84.4997C107.698 86.8998 105.721 86.4996 105 85.9995" stroke="#16191C" stroke-linecap="round" stroke-linejoin="round" fill="#000000"/>
</g>
</svg>