<svg xmlns="http://www.w3.org/2000/svg" width="223" height="223" viewBox="0 0 223 223" fill="none">
<circle cx="111.812" cy="111.812" r="83.8121" fill="#007cff"/>
<path fill-rule="evenodd" clip-rule="evenodd" d="M115.966 195.523C114.59 195.59 113.205 195.624 111.812 195.624C78.9188 195.624 50.4514 176.676 36.73 149.098L89.9025 76.5171L145.782 154.774C149.764 170.027 135.805 184.052 115.966 195.523Z" fill="#F9F9F9"/>
<rect x="76.9409" y="16" width="80.0987" height="166.938" rx="14.7599" fill="#007cff"/>
<path d="M76.9409 37.5996V110.269M157.04 43.8995V69.9991M157.04 158.648V168.178C157.04 176.33 150.431 182.938 142.28 182.938H134.09" stroke="#16191C" stroke-linecap="round" fill="#000000"/>
<mask id="mask0_1459_7310" style="mask-type:alpha" maskUnits="userSpaceOnUse" x="79" y="19" width="76" height="162" fill="#000000">
<rect x="79.9148" y="19.0381" width="74.3491" height="160.99" rx="12.5569" fill="#D9D9D9"/>
</mask>
<g mask="url(#mask0_1459_7310)">
<rect x="79.9148" y="19.0381" width="74.3491" height="160.99" rx="12.5569" fill="#16191C"/>
<rect x="108.72" y="78.7264" width="18.4105" height="28.3781" rx="9.20523" stroke="#F9F9F9" stroke-width="4.84734" fill="#000000"/>
<rect x="102.143" y="91.3115" width="31.4057" height="28.1846" rx="6.36445" fill="#007cff"/>
<path d="M123.198 102.243C123.198 105.166 120.828 107.536 117.905 107.536C114.981 107.536 112.611 105.166 112.611 102.243C112.611 99.3191 114.981 96.9492 117.905 96.9492C120.828 96.9492 123.198 99.3191 123.198 102.243Z" fill="#16191C"/>
<rect x="115.027" y="102.585" width="5.63692" height="11.2738" rx="2.81846" fill="#16191C"/>
<circle cx="117.44" cy="99.6989" r="32.2351" stroke="#007cff" fill="#000000"/>
<circle cx="117.44" cy="99.6987" r="51.6992" stroke="#007cff" fill="#000000"/>
</g>
<path d="M96.9658 16H136.978V19.1508C136.978 22.736 134.072 25.6423 130.486 25.6423H103.457C99.8722 25.6423 96.9658 22.736 96.9658 19.1508V16Z" fill="#007cff"/>
<path fill-rule="evenodd" clip-rule="evenodd" d="M56.761 175.011C47.4896 166.928 40.0134 156.838 35.0095 145.418C49.2991 129.871 56.3568 118.314 61.8174 107.725C63.2444 104.958 64.5658 98.6881 66.0615 91.5907C69.0045 77.6266 72.6227 60.4585 79.0495 60.4585C88.7428 60.4585 91.8865 73.2614 89.8812 89.508C88.0028 104.727 88.1691 105.537 90.6427 117.581C90.9882 119.263 91.3788 121.165 91.8151 123.356C95.3748 141.23 86.7345 164.307 78.1399 170.966C75.6137 172.924 67.2601 174.187 56.761 175.011Z" fill="#F9F9F9"/>
<path d="M68.7104 86.5539C68.7104 86.5539 74.8575 87.4179 78.0653 85.0768C81.8133 82.3414 82.9889 75.0604 82.9889 67.8442" stroke="#16191C" stroke-linecap="round" fill="#000000"/>
<path d="M144.011 152.343C146.048 148.949 155.992 141.84 161.736 139.05C163.87 137.901 169.22 137.277 173.553 143.973C178.969 152.343 161.736 162.453 151.889 164.652C142.231 166.81 141.057 157.267 144.011 152.343Z" fill="#F9F9F9"/>
<path d="M178.98 127.496C177.404 120.8 169.461 119.125 165.686 119.125C163.224 121.916 151.605 132.419 148.454 132.419C144.515 132.419 134.175 135.866 135.16 145.221C136.145 154.575 156.824 149.159 165.686 146.698C174.549 144.236 180.949 135.866 178.98 127.496Z" fill="#F9F9F9"/>
<path d="M138.642 131.102C131.155 122.572 144.714 115.511 148.489 113.377L157.844 98.6066C161.455 98.1142 169.759 97.4249 174.092 98.6066C179.508 100.084 181.97 109.931 178.031 117.316C174.092 124.702 145.94 139.418 138.642 131.102Z" fill="#F9F9F9"/>
<path d="M168.479 95.9845C176.751 81.0168 162.24 71.6948 157.316 70.3818C157.316 70.3818 157.252 74.7791 155.21 77.2749C146.751 87.6144 135.413 102.878 136.968 108.786C139.239 117.416 147.638 117.487 155.21 111.867C159.754 108.494 164.601 103.001 168.479 95.9845Z" fill="#F9F9F9"/>
<path d="M141.495 116.664C146.419 115.515 160.008 109.869 167.098 98.4466M141.495 104.355C141.495 104.355 146.202 100.032 149.373 98.4466C153.312 96.4776 160.205 102.385 156.266 109.587M173.991 121.588C164.428 127.288 156.497 130.635 150.357 132.5M139.033 124.542C141.495 123.065 146.911 119.618 150.85 119.618C153.845 119.618 157.589 124.05 156.266 127.496C155.207 130.253 151.886 131.981 150.357 132.5M150.357 132.5C148.676 133.011 147.016 133.353 145.434 133.574M147.403 150.636C153.476 150.308 166.113 147.978 172.021 143.251M139.033 139.804C139.033 139.804 145.15 137.093 147.896 137.343C153.312 137.835 155.281 144.728 152.327 147.19C150.615 148.616 146.419 148.995 142.972 149.159M145.926 156.545C147.896 155.232 151.441 152.704 153.804 153.098C156.758 153.59 159.712 158.514 158.728 159.991C157.94 161.173 154.625 162.781 153.312 163.438" stroke="#16191C" stroke-linecap="round" fill="#000000"/>
</svg>