<svg xmlns="http://www.w3.org/2000/svg" xmlns:xlink="http://www.w3.org/1999/xlink" version="1.1" id="Layer_1" x="0px" y="0px" width="426px" height="268px" viewBox="0 0 426 268" style="enable-background:new 0 0 426 268;" xml:space="preserve">
<style type="text/css">
	.st0{fill:#03a9f4;}
</style>
<g id="XMLID_00000113350488787485115390000007497796965618337422_">
	<g>
		<g>
			<g>
				<path class="st0" d="M335.4,122.2c-0.4,26.4-1.3,50.4-10.1,71.2c-7.2,17.1-17.2,32.1-29.8,44.8c-13.1,13.2-26.2,20.9-33.9,24.7      c-7.8-3.8-20.8-11.5-33.9-24.7c-12.6-12.6-22.6-27.7-29.8-44.8c-8.8-20.8-9.6-44.7-10.1-71.2c30.8-2.9,49.4-10.8,73.8-23.2      C286,111.4,304.6,119.2,335.4,122.2z M284,175.5l10.2-10.9l-10.5-9.5l-25.1,26.2L245,169.5l-9.8,10.3l24,22.4L284,175.5z" fill="#000000"/>
			</g>
		</g>
	</g>
	<g>
		<g>
			<g>
				<path d="M314.3,105.2c-2.7-18.8-10.2-36.7-21.7-51.9C271.1,24.9,238.5,8.6,203,8.3l0-7.3c37.8,0.2,72.5,17.7,95.4,47.8      c12.3,16.2,20.3,35.3,23.2,55.3L314.3,105.2z" fill="#000000"/>
			</g>
		</g>
		<g>
			<g>
				<path d="M201.5,242.1c-37.8-0.2-72.5-17.7-95.4-47.9c-15.9-21.1-24.4-46.2-24.4-72.7c0-26.5,8.4-51.6,24.4-72.7      C128.9,18.7,163.7,1.2,201.5,1l0,7.3c-35.5,0.2-68.1,16.6-89.6,44.9C97,73.1,89,96.7,89,121.5c0,24.9,7.9,48.5,22.9,68.3      c21.5,28.3,54.1,44.7,89.6,44.9L201.5,242.1z" fill="#000000"/>
			</g>
		</g>
		<g>
			<g>
				<path d="M202.2,242.1c-0.3,0-0.6,0-0.9,0c-22.1-0.6-41.8-22.7-52.9-59.1c-5.6-18.5-8.6-39.7-8.6-61.4c0-21.5,2.9-42.5,8.4-60.9      v0l0.2-0.5C159.5,23.7,179.3,1.6,201.4,1c0.5,0,1.2,0,1.7,0c22,0.6,41.8,22.6,52.9,59c2.4,7.8,4.3,16.1,5.7,24.6l-7.2,1.2      c-1.3-8.2-3.2-16.2-5.4-23.7c-10-32.7-27.6-53.3-46.1-53.8c-0.2,0-0.4,0-0.7,0c-0.2,0-0.4,0-0.6,0c-18.4,0.5-36,21-46,53.5      l-0.1,0.4c-5.4,17.8-8.3,38.3-8.3,59.3c0,21,2.9,41.5,8.3,59.3c9.9,32.8,27.6,53.5,46.1,53.9c0.2,0,0.4,0,0.7,0      c0.2,0,0.4,0,0.6,0l0.2,7.3C202.8,242.1,202.5,242.1,202.2,242.1z" fill="#000000"/>
			</g>
		</g>
		<g>
			<g>
				<rect x="85.4" y="117.9" width="84.8" height="7.3" fill="#000000"/>
			</g>
		</g>
		<g>
			<g>
				<path d="M201.8,69.6c-16.1,0-32.6-1.6-50.4-4.8c-13.1-2.4-27.3-5.7-43.3-10.2l2-7.1c15.8,4.4,29.7,7.7,42.6,10      c17.5,3.2,33.8,4.7,49.6,4.7c15.7,0,31.9-1.6,49.6-4.8c12.8-2.3,26.7-5.6,42.7-10l0.5-0.1h0.5l0,3.7l1,3.5      c-16.2,4.4-30.3,7.7-43.3,10.1c-18.1,3.3-34.7,4.9-50.9,4.9C202.1,69.6,201.9,69.6,201.8,69.6z" fill="#000000"/>
			</g>
		</g>
		<g>
			<g>
				<path d="M110,195.5l-2-7.1c16-4.5,30.2-7.8,43.3-10.2c8-1.5,15.5-2.5,23.1-3.3l0.8,7.3c-7.4,0.8-14.7,1.9-22.5,3.3      C139.7,187.8,125.8,191.1,110,195.5z" fill="#000000"/>
			</g>
		</g>
		<g>
			<g>
				<rect x="198.6" y="4.7" width="7.3" height="100.1" fill="#000000"/>
			</g>
		</g>
		<g>
			<g>
				<path d="M260.7,267l-1.3-0.4c-0.8-0.3-19.9-6.8-39.1-26.4c-11.2-11.5-20.2-25.2-26.6-40.6c-8-19.2-12-41.1-12-65.3l0.2-16.9      l3.6-0.1c32.1-0.6,49.9-7.4,73.5-20.4l1.8-1l1.8,1c23.6,13.1,41.4,19.8,73.5,20.4l3.6,0.1l0.2,16.9c0,24.1-4,46.1-12,65.3      c-6.4,15.4-15.4,29.1-26.6,40.6c-19.2,19.6-38.3,26.1-39.1,26.4L260.7,267z M189.1,124.6l-0.1,9.8c0,23.1,3.9,44.1,11.5,62.4      c6.1,14.6,14.5,27.4,25.1,38.3c15.8,16.1,31.2,22.7,35.2,24.2c4-1.5,19.4-8.1,35.2-24.2c10.6-10.8,19-23.7,25.1-38.3      c7.6-18.3,11.5-39.3,11.5-62.4l-0.1-9.8c-30.5-1-49.2-8-71.6-20.3C238.3,116.6,219.6,123.5,189.1,124.6z" fill="#000000"/>
			</g>
		</g>
		<g>
			<g>
				<path d="M259.4,207.3L230,179.9l14.8-15.5l13.5,11.8l25.2-26.3l15.9,14.4L259.4,207.3z M240.5,179.6l18.6,17.4l29.9-32.1      l-5.1-4.6l-25.1,26.2l-13.5-11.8L240.5,179.6z" fill="#000000"/>
			</g>
		</g>
	</g>
</g>
</svg>