<svg xmlns="http://www.w3.org/2000/svg" xmlns:xlink="http://www.w3.org/1999/xlink" version="1.1" id="Layer_1" x="0px" y="0px" width="426px" height="268px" viewBox="0 0 426 268" style="enable-background:new 0 0 426 268;" xml:space="preserve">
<style type="text/css">
	.st0{fill:#03a9f4;}
</style>
<g id="XMLID_00000067209470637875987900000013281133001726063773_">
	<g>
		<g>
			<path class="st0" d="M328.3,42.3v86.1c0,62.1-38.8,99.5-111,134.4c-72.2-34.9-111-72.3-111-134.4l-0.1-86.1     c45.3-4.8,71.3-13.7,111-37C256.8,28.6,283,37.5,328.3,42.3z M306.6,128.4V61.4c-33.3-5.1-58.1-13.8-89.4-31.1     c-31.2,17.3-56.1,26-89.2,31.1l0.1,66.9c0,46.1,25.2,77.5,89.2,110.1C281.4,205.9,306.6,174.5,306.6,128.4z" fill="#000000"/>
		</g>
		<g>
			<path class="st0" d="M216.6,147.4c1.7,0,3-1.3,3-2.9c0-1.6-1.4-2.9-3-2.9c-1.7,0-3,1.3-3,2.9     C213.6,146.1,214.9,147.4,216.6,147.4z M247,125.5v35c0,3.7-3.1,6.7-6.9,6.7h-4.7h-41c-3.8,0-6.9-3-6.9-6.7v-35h11.9H247z" fill="#000000"/>
		</g>
	</g>
	<g>
		<g>
			<path d="M217.3,266.9l-1.6-0.8c-39.2-19-65.8-37.4-83.7-57.9c-19.7-22.6-29.3-48.8-29.3-79.8L102.5,39l3.3-0.4     c44.2-4.7,69.8-13.2,109.5-36.5l1.9-1.1l1.9,1.1c39.7,23.3,65.3,31.8,109.6,36.5L332,39v89.4c0,31.1-9.6,57.2-29.3,79.8     c-17.9,20.5-44.5,38.9-83.7,57.9L217.3,266.9z M109.9,45.6l0.1,82.7c0,29.2,9,53.7,27.5,75c17,19.5,42.4,37.1,79.8,55.3     c37.4-18.2,62.8-35.8,79.8-55.3c18.5-21.2,27.5-45.7,27.5-75V45.6c-42.9-4.8-68.7-13.5-107.4-36     C178.5,32.1,152.7,40.8,109.9,45.6z" fill="#000000"/>
		</g>
		<g>
			<path d="M217.3,242.7l-1.7-0.9c-33.2-16.9-55.4-33.1-69.8-51c-14.6-18.1-21.4-37.9-21.4-62.5l-0.1-70.1l3.2-0.5     c32.4-5,57.1-13.6,88-30.7l1.8-1l1.8,1c30.9,17.1,55.6,25.7,88.1,30.7l3.2,0.5v70.1c0,24.5-6.8,44.4-21.4,62.5     c-14.5,17.9-36.6,34.1-69.8,51L217.3,242.7z M131.7,64.6l0.1,63.8c0,44.5,24,74.3,85.5,106c61.5-31.6,85.5-61.5,85.5-106V64.6     c-31.3-5.1-55.7-13.7-85.7-30C187.3,50.9,162.9,59.5,131.7,64.6z" fill="#000000"/>
		</g>
		<g>
			<path d="M240.1,170.8h-45.7c-5.9,0-10.6-4.7-10.6-10.4v-38.7h67v38.7C250.7,166.2,246,170.8,240.1,170.8z M191.2,129.2v31.3     c0,1.7,1.4,3,3.2,3h45.7c1.8,0,3.2-1.3,3.2-3v-31.3H191.2z" fill="#000000"/>
		</g>
		<g>
			<path d="M203.1,125.5h-7.4v-16.9c0-8.5,7.1-15.5,15.8-15.5h10.4c8.7,0,15.8,6.9,15.8,15.5v14.9h-7.4v-14.9c0-4.4-3.8-8-8.4-8     h-10.4c-4.6,0-8.4,3.6-8.4,8V125.5z" fill="#000000"/>
		</g>
		<g>
			<path d="M216.6,151.1c-3.7,0-6.7-3-6.7-6.6c0-3.7,3-6.6,6.7-6.6c3.7,0,6.7,3,6.7,6.6C223.3,148.2,220.3,151.1,216.6,151.1z      M216.6,143.7c-0.4,0-0.7,0.4-0.7,0.8c0,0.4,0.3,0.8,0.7,0.8c0.4,0,0.7-0.3,0.7-0.8C217.3,144.1,217,143.7,216.6,143.7z" fill="#000000"/>
		</g>
		<g>
			<rect x="212.9" y="143.5" width="7.4" height="11.3" fill="#000000"/>
		</g>
	</g>
</g>
</svg>