<svg xmlns="http://www.w3.org/2000/svg" width="91.308" height="80" viewBox="0 0 91.308 80">
  <g id="cyberghost-vpn-protected-devices-2" transform="translate(-1125.915 -3273.519)">
    <g id="Group_79" data-name="Group 79" transform="translate(1125.915 3278.033)">
      <path id="Path_152" data-name="Path 152" d="M1183.485,3553.262l20.5-1.56-13.121-4.944-2.539.3-.7.1-2.668-3.72-25.652.216c-.128.171-1.727,2.271-3,3.945l-12.8-1.073-17.583,4.308,25.45,4.34,20.856-4.84,8.17-.055Z" transform="translate(-1125.915 -3483.033)" fill="#263238" opacity="0.22"/>
      <g id="Group_78" data-name="Group 78" transform="translate(0.234)">
        <path id="Path_153" data-name="Path 153" d="M1454.25,3532.931l2.114,1.175,2.937-.822,2.7,1.057,4.581-2-5.952-1.145Z" transform="translate(-1375.51 -3473.733)" fill="#263238" opacity="0.22"/>
        <path id="Path_154" data-name="Path 154" d="M1126.886,3532.352l2.541,1.925,2.193-.347,4.536.475,4.4-1.062s-6.987-2.613-7.236-2.53-2.125.253-2.125.253l-2.734.539Z" transform="translate(-1126.886 -3473.438)" fill="#263238" opacity="0.22"/>
        <path id="Path_155" data-name="Path 155" d="M1284.131,3542.737l16.56,1.77.006.855-18.2.181Z" transform="translate(-1245.071 -3482.496)" fill="#60637f"/>
        <path id="Path_156" data-name="Path 156" d="M1284.131,3539.161h13.533l3.032,2.625-18.2.181Z" transform="translate(-1245.071 -3479.78)" fill="#a8adc6"/>
        <path id="Path_157" data-name="Path 157" d="M1308.845,3522.738v4.662h5.477v-4.8Z" transform="translate(-1265.079 -3467.204)" fill="#7a809e"/>
        <path id="Path_158" data-name="Path 158" d="M1263.964,3450.057l-40.175,1.042-3.589-24.429,46.543,1.274Z" transform="translate(-1197.755 -3394.347)" fill="#60637f"/>
        <g id="Group_70" data-name="Group 70" transform="translate(3.164 46.716)">
          <path id="Path_159" data-name="Path 159" d="M1182.487,3489.518l-.47,2.862.351-.374.389-2.383Z" transform="translate(-1171.92 -3488.795)" fill="#60637f"/>
          <path id="Path_160" data-name="Path 160" d="M1175.091,3510.382l.333-.21,1.685-10.308-.351.374Z" transform="translate(-1166.66 -3496.652)" fill="#60637f"/>
          <path id="Path_161" data-name="Path 161" d="M1141.081,3494.807l-1.04,4.391,2.593.962,7.537-8.021.475-2.847-.508-.044Z" transform="translate(-1140.041 -3488.589)" fill="#7a809e"/>
          <path id="Path_162" data-name="Path 162" d="M1145.837,3486.509l-1.473,6.218,9.058-5.559Z" transform="translate(-1143.324 -3486.509)" fill="#7a809e"/>
          <path id="Path_163" data-name="Path 163" d="M1156.66,3511.453l1.7-10.186-7.537,8.021Z" transform="translate(-1148.229 -3497.718)" fill="#7a809e"/>
          <path id="Path_164" data-name="Path 164" d="M1158.4,3514.407l1.193-7.15-5.363,5.708Z" transform="translate(-1150.818 -3502.267)" fill="#007cff"/>
          <path id="Path_165" data-name="Path 165" d="M1144.776,3496.736l-.976,4.128,2.509.868,5.363-5.708.586-3.512-.527-.045Z" transform="translate(-1142.896 -3491.034)" fill="#a1dffa"/>
          <path id="Path_166" data-name="Path 166" d="M1148.985,3490.4l-1.127,4.767,6.956-4.269Z" transform="translate(-1145.978 -3489.46)" fill="#007cff"/>
        </g>
        <path id="Path_167" data-name="Path 167" d="M1349.31,3436.449l-12.6,20.179,14.153-.355,2.478-19.717Z" transform="translate(-1286.244 -3401.774)" fill="#007cff"/>
        <path id="Path_168" data-name="Path 168" d="M1291.846,3435.121l-15,20.861,14.4-.362,12.6-20.18Z" transform="translate(-1240.78 -3400.765)" fill="#a1dffa"/>
        <path id="Path_169" data-name="Path 169" d="M1228.575,3432.175l2.356,16.035,13.267-15.619Z" transform="translate(-1204.116 -3398.528)" fill="#007cff"/>
        <path id="Path_170" data-name="Path 170" d="M1251.636,3433.9l-13.267,15.618.844,5.746,8.412-.211,15-20.861Z" transform="translate(-1211.554 -3399.841)" fill="#007cff"/>
        <path id="Path_171" data-name="Path 171" d="M1289.085,3292.286v58.863c0,.008,0,.016,0,.024.038,2.868-1.086,4.408-2.149,4.894a1.71,1.71,0,0,1-1.514,0c-.993-.479-2.01-2.016-1.886-4.9a.836.836,0,0,0-.9-.767.87.87,0,0,0-.96.716c-.13,3.036.884,5.3,2.783,6.218a3.936,3.936,0,0,0,1.711.39,4.055,4.055,0,0,0,1.684-.369c1.945-.888,3.093-3.156,3.085-6.081h0v-58.988Z" transform="translate(-1244.438 -3292.286)" fill="#181444"/>
        <g id="Group_72" data-name="Group 72" transform="translate(0.619 48.101)">
          <g id="Group_71" data-name="Group 71">
            <path id="Path_172" data-name="Path 172" d="M1146.479,3492.266l-1.925,13.705-15.093,4.083,26.162,3.851,11.415-3.449,5.115-17.459C1168.522,3492.9,1146.479,3492.266,1146.479,3492.266Z" transform="translate(-1129.461 -3492.266)" fill="#7a809e"/>
            <path id="Path_173" data-name="Path 173" d="M1172.153,3495.3l-5.115,17.459.142-.043-.142.043-.032.109.032-.109-11.415,3.449.04.006-.04-.006-.307.093.307-.093-26.162-3.851.144,1.441,25.646,3.4,12.017-3.3,5.276-18.2Z" transform="translate(-1129.461 -3494.572)" fill="#60637f"/>
            <path id="Path_174" data-name="Path 174" d="M1250.269,3500.025l-5.773-.175-10.5,12.613,10.148,1.3,4.975-9.986Z" transform="translate(-1208.853 -3498.026)" fill="#a1dffa"/>
            <path id="Path_175" data-name="Path 175" d="M1281.165,3516.2l-4.975,9.986,1.852.238Z" transform="translate(-1240.897 -3510.44)" fill="#007cff"/>
            <path id="Path_176" data-name="Path 176" d="M1199.358,3497.614l-1.414,9.572,10.011-9.312Z" transform="translate(-1181.473 -3496.328)" fill="#007cff"/>
            <path id="Path_177" data-name="Path 177" d="M1206.828,3498.7l-10.011,9.312-.357,2.419,9.029,1.16,10.5-12.613Z" transform="translate(-1180.345 -3497.15)" fill="#007cff"/>
            <path id="Path_178" data-name="Path 178" d="M1171.4,3566.431l-5.819.884,8.358.862,3.007-1.035Z" transform="translate(-1156.89 -3548.592)" fill="#a7aec6"/>
            <circle id="Ellipse_39" data-name="Ellipse 39" cx="0.325" cy="0.325" r="0.325" transform="translate(28.728 0.642)" fill="#cacfe5"/>
          </g>
        </g>
        <g id="Group_74" data-name="Group 74" transform="translate(47.899 42.657)">
          <path id="Path_179" data-name="Path 179" d="M1326.026,3469.819l.609-.18,3.772,22.056h-.627Z" transform="translate(-1326.026 -3469.637)" fill="#60637f"/>
          <path id="Path_180" data-name="Path 180" d="M1359.649,3564.333l.015-.608,14.426.444-.014.608-11.5,1.665Z" transform="translate(-1351.562 -3541.094)" fill="#60637f"/>
          <path id="Path_181" data-name="Path 181" d="M1359.71,3559l9.9-1.5,4.529,1.942L1362.78,3561Z" transform="translate(-1351.608 -3536.364)" fill="#a8adc6"/>
          <path id="Path_182" data-name="Path 182" d="M1381.48,3548.876l-1.08,3.366,4.211-.687,1.166-3.449Z" transform="translate(-1367.322 -3529.231)" fill="#60637f"/>
          <path id="Path_183" data-name="Path 183" d="M1328.521,3469.634l28.06,1.332-1.3,17.035-22.972,3.692Z" transform="translate(-1327.921 -3469.634)" fill="#7a809e"/>
          <path id="Path_184" data-name="Path 184" d="M1333.883,3474.231l3.2,18.051.737-.1,8.816-17.375Z" transform="translate(-1331.993 -3473.126)" fill="#007cff"/>
          <path id="Path_185" data-name="Path 185" d="M1359.061,3476.623,1350.245,3494l9.554-1.309,6.9-15.721Z" transform="translate(-1344.42 -3474.942)" fill="#a1dffa"/>
          <path id="Path_186" data-name="Path 186" d="M1396.866,3478.055l-6.9,15.721,4.792-.657,4.928-14.937Z" transform="translate(-1374.588 -3476.03)" fill="#007cff"/>
          <path id="Path_187" data-name="Path 187" d="M1417.3,3478.7l-2.479-.112-4.929,14.937,6.43-.881Z" transform="translate(-1389.719 -3476.431)" fill="#007cff"/>
          <circle id="Ellipse_40" data-name="Ellipse 40" cx="0.343" cy="0.343" r="0.343" transform="translate(16.873 18.837)" fill="#cacfe5"/>
          <g id="Group_73" data-name="Group 73" transform="translate(7.615 24.446)">
            <path id="Path_188" data-name="Path 188" d="M1357.872,3580.223l-.187-1.551,22.887-1.6,8.309,2.594-.028.44-25.447,3.952Z" transform="translate(-1357.685 -3575.679)" fill="#60637f"/>
            <path id="Path_189" data-name="Path 189" d="M1357.684,3574.262l22.882-2.993,8.321,3.991-25.377,3.876Z" transform="translate(-1357.684 -3571.269)" fill="#7a809e"/>
            <path id="Path_190" data-name="Path 190" d="M1438.128,3574.668c.221.147,4.727,2.483,4.727,2.483l-4.58.717s-4.505-2.759-4.561-2.685S1438.128,3574.668,1438.128,3574.668Z" transform="translate(-1415.427 -3573.851)" fill="#a7aec6"/>
            <path id="Path_191" data-name="Path 191" d="M1368.8,3579.695c-.056-.014,2.352,1.691,3.535,2.528l12.443-1.761-3.362-2.49C1378.034,3578.44,1368.857,3579.71,1368.8,3579.695Z" transform="translate(-1366.124 -3576.359)" fill="#a7aec6"/>
            <path id="Path_192" data-name="Path 192" d="M1424.666,3577.1l-1.232.171,3.362,2.49,1.481-.209C1427.229,3578.84,1424.724,3577.142,1424.666,3577.1Z" transform="translate(-1407.62 -3575.696)" fill="#a7aec6"/>
            <path id="Path_193" data-name="Path 193" d="M1400.712,3589.748l-.453-.307-14.286,1.995.639.451Z" transform="translate(-1379.169 -3585.071)" fill="#a7aec6"/>
          </g>
        </g>
        <g id="Group_75" data-name="Group 75" transform="translate(78.616 49.743)">
          <path id="Path_194" data-name="Path 194" d="M1460.464,3499.093l-4.824.4,1.445,9.537,5.233-1.334Z" transform="translate(-1455.181 -3499.093)" fill="#7a809e"/>
          <path id="Path_195" data-name="Path 195" d="M1459.228,3502.852l.915,6.039.281-6.149Z" transform="translate(-1457.906 -3501.864)" fill="#007cff"/>
          <path id="Path_196" data-name="Path 196" d="M1463.313,3502.184l-.281,6.149.272,1.8,1.676-.462.248-7.661Z" transform="translate(-1460.795 -3501.307)" fill="#a1dffa"/>
          <path id="Path_197" data-name="Path 197" d="M1471.928,3501.8l-.549.051-.248,7.661,2.322-.64Z" transform="translate(-1466.946 -3501.147)" fill="#007cff"/>
          <path id="Path_198" data-name="Path 198" d="M1454.194,3500.793l-.462.24,1.442,9.256.479.035Z" transform="translate(-1453.732 -3500.384)" fill="#60637f"/>
        </g>
        <g id="Group_76" data-name="Group 76" transform="translate(83.577 52.3)">
          <path id="Path_199" data-name="Path 199" d="M1479.481,3509.724l-3.847.689.966,6.378,3.727-.931Z" transform="translate(-1475.326 -3509.724)" fill="#7a809e"/>
          <path id="Path_200" data-name="Path 200" d="M1479.145,3513.425l.794,4.9,1.1-.326.029-5.273Z" transform="translate(-1477.993 -3512.006)" fill="#a1dffa"/>
          <path id="Path_201" data-name="Path 201" d="M1487.7,3511.788l-.628.226-.029,5.273,1.527-.45Z" transform="translate(-1483.99 -3511.292)" fill="#007cff"/>
          <path id="Path_202" data-name="Path 202" d="M1474.666,3512.607l-.309.16.964,6.19.32.023Z" transform="translate(-1474.358 -3511.914)" fill="#60637f"/>
        </g>
        <g id="Group_77" data-name="Group 77" transform="translate(0.986 52.936)">
          <path id="Path_203" data-name="Path 203" d="M1135,3512.368l-.307,1.425,1.7-1.042Z" transform="translate(-1133.803 -3512.368)" fill="#7a809e"/>
          <path id="Path_204" data-name="Path 204" d="M1131.878,3515l-.892,4.14,3.252,1.4.173-.184.9-5.925-1.732-.476Z" transform="translate(-1130.986 -3513.576)" fill="#7a809e"/>
          <path id="Path_205" data-name="Path 205" d="M1144.678,3540.571l-.173.184.136.059Z" transform="translate(-1141.254 -3533.787)" fill="#7a809e"/>
          <path id="Path_206" data-name="Path 206" d="M1136.6,3514.935l-.117.543.609-.374Z" transform="translate(-1135.162 -3514.318)" fill="#007cff"/>
          <path id="Path_207" data-name="Path 207" d="M1138.1,3516.232l-1.72-.592-.61.374-.226,1.051,2.541-.732Z" transform="translate(-1134.447 -3514.853)" fill="#007cff"/>
          <path id="Path_208" data-name="Path 208" d="M1133.725,3519.252l-.576,2.673.078.04,2.76-1.6.279-1.841Z" transform="translate(-1132.628 -3517.04)" fill="#a1dffa"/>
          <path id="Path_209" data-name="Path 209" d="M1135.811,3528.962l.422-2.788-2.76,1.6Z" transform="translate(-1132.875 -3522.854)" fill="#007cff"/>
          <path id="Path_210" data-name="Path 210" d="M1145.17,3521.889l.368-.392.839-5.388-.3-.155Z" transform="translate(-1141.759 -3515.092)" fill="#60637f"/>
          <path id="Path_211" data-name="Path 211" d="M1145.06,3539.392l-.035.229.31-.022.093-.6Z" transform="translate(-1141.648 -3532.595)" fill="#60637f"/>
        </g>
      </g>
    </g>
    <g id="Group_83" data-name="Group 83" transform="translate(1129.911 3273.519)">
      <path id="Path_212" data-name="Path 212" d="M1314.365,3274.97c0-1.931-1.858-1.937-1.858,0v3.063h1.858Z" transform="translate(-1271.622 -3273.52)" fill="#130f41"/>
      <g id="Group_82" data-name="Group 82" transform="translate(0 2.858)">
        <g id="Group_80" data-name="Group 80">
          <path id="Path_213" data-name="Path 213" d="M1142.527,3307.664s3.51-21.674,41.711-21.674,40.988,21.372,40.988,21.372c-7.76-3.21-14.8-3.427-20.959.077-6.86-4.344-13.626-3.585-20.34.074-6.674-4.2-13.76-3.373-21.062.077C1156.194,3302.164,1149.371,3304.387,1142.527,3307.664Z" transform="translate(-1142.527 -3285.847)" fill="#464759"/>
          <path id="Path_214" data-name="Path 214" d="M1317.186,3285.994l.206.092.2-.09Z" transform="translate(-1275.175 -3285.851)" fill="#007cff"/>
          <path id="Path_215" data-name="Path 215" d="M1248.144,3285.455l-.459-.054-.426.043s-21.3,4.148-21.3,21.4l-.238.032c.11.085.22.172.33.261,7.3-3.45,14.388-4.281,21.061-.077,6.714-3.66,13.48-4.418,20.34-.074C1267.449,3288.258,1248.144,3285.455,1248.144,3285.455Z" transform="translate(-1205.708 -3285.4)" fill="#2c2d43"/>
        </g>
        <g id="Group_81" data-name="Group 81" transform="translate(33.666 5.461)">
          <path id="Path_216" data-name="Path 216" d="M1286.332,3318.845c-2.119,0-3.839-2.413-3.839-5.371s1.72-5.371,3.839-5.371,3.839,2.413,3.839,5.371-1.72,5.371-3.839,5.371" transform="translate(-1282.493 -3308.104)" fill="#fff"/>
          <path id="Path_217" data-name="Path 217" d="M1325.9,3318.454c-1.678,0-3.021-1.909-3.021-4.259s1.364-4.259,3.021-4.259,3.021,1.909,3.021,4.259-1.364,4.259-3.021,4.259" transform="translate(-1313.161 -3309.496)" fill="#fff"/>
        </g>
      </g>
    </g>
  </g>
</svg>