<svg xmlns="http://www.w3.org/2000/svg" width="88.519" height="80" viewBox="0 0 88.519 80">
  <g id="cyberghost-vpn-online-protection-1" transform="translate(-481.183 -237.812)">
    <path id="Path_1142" data-name="Path 1142" d="M622.29,418.005c0,2.186-7.6,3.948-16.965,3.948s-16.965-1.766-16.965-3.948,6.36-3.163,15.731-3.163S622.29,415.823,622.29,418.005Z" transform="translate(-67.338 -111.227)" fill="#263238" opacity="0.22" style="isolation: isolate"/>
    <path id="Path_1142-2" data-name="Path 1142-2" d="M566.936,442.407c0,1.372-7.6,2.479-16.965,2.479s-16.961-1.115-16.961-2.479,6.356-1.985,15.727-1.985S566.936,441.039,566.936,442.407Z" transform="translate(-32.562 -127.298)" fill="#263238" opacity="0.22" style="isolation: isolate"/>
    <path id="Path_262" data-name="Path 262" d="M610.982,240.964a23.418,23.418,0,0,0-32,8.541l-.022.038c-6.471,11.207-34.056,22.3,15.954,51.173,11.218,6.475,18.173-16.534,24.641-27.741a23.418,23.418,0,0,0-8.547-32Zm-26.521,23.99c-3.286-1.9-3.791-7.163-1.115-11.776s9.46-8.586,12.746-6.691,1.8,8.943-.859,13.556S587.743,266.85,584.46,264.954ZM613.5,272.31c-3.461,5.765-9.445,8.605-13.6,6.2s-4.788-9.055-1.427-14.868,11.151-12.508,16.244-8.178C618.888,258.888,616.952,266.552,613.5,272.31Z" transform="translate(-53.005 0)" fill="#263238"/>
    <path id="Path_263" data-name="Path 263" d="M615.27,252.463c1.056.476,14.868,10.185,14.868,10.185l21.492,4.26-.584-6.977-29.068-12.738Z" transform="translate(-84.246 -5.894)" fill="#263238"/>
    <path id="Path_264" data-name="Path 264" d="M594.506,285.7c.4.539,15.039,8.921,15.039,8.921l-4.189,13.329,13.627,9.835L589.44,306.116l4.661-19.831" transform="translate(-68.017 -30.089)" fill="#263238"/>
    <path id="Path_265" data-name="Path 265" d="M526.191,261.46c5.4,10.311,10.78,18.24,21.44,25.648,0,0-6.947,48.054-38.866,44.233s-14.5-64.744-14.5-64.744,16.552-1.524,28.815-6.862C524.091,259.311,525.251,261.991,526.191,261.46Z" transform="translate(-5.24 -13.745)" fill="#0c64a8"/>
    <path id="Path_266" data-name="Path 266" d="M517.847,259.852c5.4,10.311,10.78,18.24,21.444,25.648,0,0-6.947,48.055-38.866,44.233s-14.5-64.744-14.5-64.744S505.514,266.922,517.847,259.852Z" transform="translate(0 -13.848)" fill="#007cff"/>
    <path id="Path_267" data-name="Path 267" d="M541.772,274.022A70.687,70.687,0,0,1,532.2,276.3c-2.914,11.2-3.87,22.986-4.416,34.45a180.31,180.31,0,0,0,.372,24.016c.483.13.981.249,1.487.346a21.081,21.081,0,0,0,10.133-.45C535.925,314.575,537.3,293.946,541.772,274.022Z" transform="translate(-29.129 -22.751)" fill="#03a9f4"/>
    <path id="Path_268" data-name="Path 268" d="M511.429,280.112c-2.7.472-5.319.829-7.542,1.085q-.594,1.6-1.219,3.182c-5,12.59-7.271,25.863-8.178,39.5,1.81,7.062,5.65,12.746,12.895,14.7a180.311,180.311,0,0,1-.372-24.016C507.556,303.1,508.515,291.308,511.429,280.112Z" transform="translate(-8.361 -26.577)" fill="#a8cff0"/>
    <path id="Path_269" data-name="Path 269" d="M501.579,283.022c-3.717.431-6.293.595-6.293.595s-7.464,25.053-3.1,42.089c.9-13.634,3.171-26.908,8.178-39.5Q500.985,284.624,501.579,283.022Z" transform="translate(-6.053 -28.405)" fill="#03a9f4"/>
    <path id="Path_270" data-name="Path 270" d="M565.951,276.984c-1.349-2.141-2.6-4.368-3.81-6.672a29.285,29.285,0,0,1-3.487,1.364c-4.46,19.938-5.847,40.568-1.985,60.641a24.156,24.156,0,0,0,10.78-7.2A130.56,130.56,0,0,1,565.951,276.984Z" transform="translate(-46.011 -20.42)" fill="#a8cff0"/>
    <path id="Path_271" data-name="Path 271" d="M582.847,288.262a130.79,130.79,0,0,0,1.487,48.129c10.519-11.634,13.917-31.755,13.917-31.755A54.6,54.6,0,0,1,582.847,288.262Z" transform="translate(-62.907 -31.697)" fill="#03a9f4"/>
    <path id="Path_272" data-name="Path 272" d="M536.825,299.934a2.973,2.973,0,0,0-1.439,5.576l-1.1,3.736-4.546-1.476-.562,2.153-7.808-2.915,1.092-5.981,2.044.115,1.924-7.69c.041,0,.082.006.124.006a2.978,2.978,0,1,0-1.454-.381l-1.5,6.7h-1.821l-1.5,6.825-6.762-2.523c.453-1.8,1.5-7.517,1.5-7.517l-3.7-1.933,1.773-7.154a2.979,2.979,0,1,0-1.868-.424l-1.228,7.8a26.426,26.426,0,0,1,3.39,2.16c.114.253-.433,4.582-.717,6.747l-2.45-.914s.528-4.773-3.13-6.691c-3.951-2.07-7.806-.427-9.07,3.226-1.219,3.531-.52,9.088,3.3,10.107a9.677,9.677,0,0,0,2.634.36l-1.638,3.863,1.386,1.427-1.29,3.47a2.963,2.963,0,0,0-2.264.824l-.014.014a2.974,2.974,0,1,0,4.219.059,3.007,3.007,0,0,0-.39-.336l1.085-3.976-1.624-1.561s1.1-2.277,1.815-3.928a5.943,5.943,0,0,0,4.051-3.462l4.23,1.687-5.23,13.605,1.647,1.249-1.222,3.123a2.973,2.973,0,1,0,1.461.371l1.4-4.193-1.639-1.572,4.538-12.2,2.945,1.174-2.9,4.947,4.041,2.23,1-5.947,4.594,1.821-3.055,7.423,2.266.907-.735,3.881,5.027,1.643a2.964,2.964,0,1,0,.475-.829l-4.023-1.268.372-2.981,2.193.877,1.334-8.616,2.948,1.487,1.026-4.089-1.747-.652.453-1.6,4.617,1.416,1.517-4.182-.2-.081c.066,0,.132.01.2.01a2.974,2.974,0,0,0,0-5.947Zm-10.27-11.166a1.725,1.725,0,0,1,.008,3.449h-.008a1.725,1.725,0,0,1,0-3.449ZM512.772,282.8a1.725,1.725,0,1,1-1.725,1.725A1.725,1.725,0,0,1,512.772,282.8Zm-9.355,40.018a1.725,1.725,0,0,1-2.439-.033h0a1.721,1.721,0,0,1,.014-2.434l0,0h.015a1.725,1.725,0,1,1,2.406,2.472Zm1.017-16.076c-1.9.193-3.639-1.531-3.873-3.855s1.115-4.364,3.015-4.557,3.635,1.531,3.873,3.855S506.334,306.551,504.434,306.744Zm6.022,22.143a1.721,1.721,0,0,1-1.717,1.725h0a1.725,1.725,0,1,1,1.721-1.728Zm19.983-3.16a1.73,1.73,0,0,1,.011,3.461h-.011v-.011a1.725,1.725,0,0,1,0-3.449Zm6.393-21.076h-.007v-.007a1.22,1.22,0,1,1,.007.007Z" transform="translate(-10.231 -27.475)" fill="#4c5063"/>
  </g>
</svg>