<svg xmlns="http://www.w3.org/2000/svg" width="200" height="141.951" viewBox="0 0 200 141.951">
  <g id="cyberghost-vpn-connection" transform="translate(-498.828 -131.726)">
    <path id="Path_1296" data-name="Path 1296" d="M540.049,198.39l42.564,15.963,78.612-6.487-54.493-11.112Z" transform="translate(37.604 59.323)" fill="#d8deec"/>
    <path id="Path_1297" data-name="Path 1297" d="M595.456,173.888l-12.444,48.666-37.386-7.789,1.808,6.552,38.853,10.431,50.349-3.453,17.132-53.668Z" transform="translate(42.691 38.463)" fill="#a7acc5"/>
    <path id="Path_1298" data-name="Path 1298" d="M649.07,172.4l-59.317-.868-7.635,44.4-36.493.98,37.058,8.117,12.772-48.994-.989-.013.989.013.209-.944-.209.944,58.313.738.015-.043Z" transform="translate(42.691 36.316)" fill="#545672"/>
    <path id="Group_2" data-name="Group 2" d="M595.856,194.471c-1.639,5.253-6.211,8.427-10.28,7.3s-6.372-6.188-5.091-11.54c1.346-5.611,6.081-9.374,10.516-8.152S597.575,188.962,595.856,194.471Z" transform="translate(74.169 45.728)" fill="none" stroke="#fff" stroke-miterlimit="10" stroke-width="0.308"/>
    <g id="Group_410" data-name="Group 410" transform="translate(498.828 131.726)">
      <g id="Group_409" data-name="Group 409" transform="translate(12.276 29.795)">
        <path id="Path_1299" data-name="Path 1299" d="M572.6,180.175a32.868,32.868,0,0,0-65.736,0c0,18.147-7.685,50.969,10.477,50.969C598.326,231.144,572.6,198.322,572.6,180.175Z" transform="translate(-505.248 -147.307)" fill="#323232"/>
        <path id="Path_1300" data-name="Path 1300" d="M525.288,190.724c-6.733,0-12.172-7.645-12.172-17.076s5.439-17.078,12.172-17.078c6.716,0,12.166,7.643,12.166,17.078S532,190.724,525.288,190.724Z" transform="translate(-498.069 -138.858)" fill="#fff"/>
        <path id="Path_1301" data-name="Path 1301" d="M538.847,184.364c-5.312,0-9.624-6.043-9.624-13.508s4.312-13.512,9.624-13.512,9.63,6.047,9.63,13.512S544.167,184.364,538.847,184.364Z" transform="translate(-483.376 -138.151)" fill="#fff"/>
      </g>
      <path id="Group_7" data-name="Group 7" d="M498.828,183.128l97.938,9.724L580.1,184.285s-15.281-50.937-16.671-50.474-15.975,12.967-15.975,12.967l-11.577-15.051-22.459,45.382Z" transform="translate(-498.828 -131.726)" fill="#323232"/>
      <rect id="Group_6" data-name="Group 6" width="52.326" height="21.996" transform="translate(25.896 72.585)" fill="#323232"/>
    </g>
    <ellipse id="Ellipse_147" data-name="Ellipse 147" cx="26.935" cy="5.084" rx="26.935" ry="5.084" transform="translate(517.818 253.345)" fill="#d8deec"/>
    <path id="Group_1" data-name="Group 1" d="M547.711,177.937c.742-1.27,24.766-7.9,26.024,7.737.859,10.678,5.025,22.808,1.675,22.961s-6.4-3.924-7.311-9.559a58.086,58.086,0,0,1-.914-8.072s1.887,8.326-2.681,8.934-.4-6.31-.4-6.31-1.017,5.526-4.978,5.526-10.07-5.257-10.07-5.257S541.994,187.707,547.711,177.937Z" transform="translate(42.557 39.896)" fill="#323232"/>
  </g>
</svg>
